<?xml version="1.0" encoding="iso-8859-1"?>
<!-- Generator: Adobe Illustrator 19.0.0, SVG Export Plug-In . SVG Version: 6.00 Build 0)  -->
<svg version="1.1" id="Layer_1" xmlns="http://www.w3.org/2000/svg" xmlns:xlink="http://www.w3.org/1999/xlink" x="0px" y="0px"
	 viewBox="0 0 295.238 295.238" style="enable-background:new 0 0 295.238 295.238;" xml:space="preserve">
<style type="text/css">
	.st0{fill:#4c4c4c;}
</style>
<g>
	<g>
		<g>
			<path class="st0" d="M223.81,179.586V72.205l9.524-28.571V0H61.905v43.629L71.429,72.2v107.381l-23.81,38.095v77.562h200v-77.557
				L223.81,179.586z M71.429,9.524H223.81v28.571H71.429V9.524z M221.966,47.619l-6.352,19.048H79.624l-6.348-19.048H221.966z
				 M80.952,182.319V76.19h133.333v106.129l19.981,31.967H60.971L80.952,182.319z M238.095,285.714H57.143v-23.81h180.952V285.714z
				 M238.095,252.381H57.143V223.81h180.952V252.381z"/>
			<path class="st0" d="M195.238,85.714H100c-7.876,0-14.286,6.41-14.286,14.286v57.143c0,7.876,6.41,14.286,14.286,14.286h14.266
				C106.399,171.44,100,177.845,100,185.714c0,6.2,3.995,11.438,9.524,13.41v10.4h9.524v-10.4c5.529-1.971,9.524-7.21,9.524-13.41
				c0-7.869-6.399-14.274-14.266-14.285h80.932c7.876,0,14.286-6.41,14.286-14.286V100
				C209.524,92.124,203.114,85.714,195.238,85.714z M119.048,185.714c0,2.629-2.138,4.762-4.762,4.762s-4.762-2.133-4.762-4.762
				c0-2.628,2.138-4.762,4.762-4.762S119.048,183.085,119.048,185.714z M200,157.143c0,2.629-2.133,4.762-4.762,4.762H100
				c-2.629,0-4.762-2.133-4.762-4.762V100c0-2.629,2.133-4.762,4.762-4.762h95.238c2.629,0,4.762,2.133,4.762,4.762V157.143z"/>
			<circle class="st0" cx="147.619" cy="204.762" r="4.762"/>
			<circle class="st0" cx="166.667" cy="204.762" r="4.762"/>
			<circle class="st0" cx="185.714" cy="204.762" r="4.762"/>
			<rect class="st0" x="104.762" y="104.762" width="9.524" height="9.524"/>
			<rect class="st0" x="123.81" y="104.762" width="9.524" height="9.524"/>
			<rect class="st0" x="142.857" y="104.762" width="9.524" height="9.524"/>
			<rect class="st0" x="161.905" y="104.762" width="9.524" height="9.524"/>
			<rect class="st0" x="180.952" y="104.762" width="9.524" height="9.524"/>
			<path class="st0" d="M166.666,142.857h-4.762V130.39l-14.286-7.143l-14.286,7.143v12.467h-4.762v-4.762h-9.524v14.286h14.286v4.762h0.001
				h28.571v-4.762h14.286v-14.286h-9.524V142.857z M152.381,147.619h-9.524v-11.343l4.762-2.381l4.762,2.381V147.619z"/>
			<rect class="st0" x="119.048" y="123.81" width="9.524" height="9.524"/>
			<rect class="st0" x="166.667" y="123.81" width="9.524" height="9.524"/>
		</g>
	</g>
</g>
</svg>
