<?xml version="1.0" encoding="utf-8"?>
<!-- Generator: Adobe Illustrator 21.0.0, SVG Export Plug-In . SVG Version: 6.00 Build 0)  -->
<svg version="1.1" id="Capa_1" xmlns="http://www.w3.org/2000/svg" xmlns:xlink="http://www.w3.org/1999/xlink" x="0px" y="0px"
	 viewBox="0 0 304 304" style="enable-background:new 0 0 304 304;" xml:space="preserve">
<style type="text/css">
	.st0{fill:#FFFFFF;}
</style>
<path class="st0" d="M298.1,5.9c-7.9-7.9-20.8-7.9-28.7,0l-80.8,80.8l-48-48c-12.2-12.2-31.9-12.2-44.1,0L61.9,73.3l4.3,4.3
	L6.4,115.9c-3.6,2.3-5.9,6.1-6.4,10.3c-0.5,4.2,1,8.4,4,11.4l162.3,162.3c2.6,2.6,6.2,4.1,9.9,4.1c0.5,0,1,0,1.5-0.1
	c4.2-0.5,8-2.8,10.3-6.4l38.3-59.8l4.3,4.3l34.6-34.6c12.2-12.2,12.2-31.9,0-44.1l-48-48l80.8-80.8C306,26.7,306,13.8,298.1,5.9z
	 M173.9,267.8L146.1,240l27.3-40.7l-40.7,27.3l-23.4-23.4l17.4-25.9l-25.9,17.4l-26.5-26.5l21.1-31.4l-31.4,21.1l-27.7-27.7
	l50.3-32.2l119.6,119.6L173.9,267.8z"/>
</svg>
