<?xml version="1.0" encoding="utf-8"?>
<!-- Generator: Adobe Illustrator 21.0.0, SVG Export Plug-In . SVG Version: 6.00 Build 0)  -->
<svg version="1.1" id="Capa_1" xmlns="http://www.w3.org/2000/svg" xmlns:xlink="http://www.w3.org/1999/xlink" x="0px" y="0px"
	 viewBox="0 0 200 200" style="enable-background:new 0 0 200 200;" xml:space="preserve">
<style type="text/css">
	.st0{fill:#4C4C4C;}
</style>
<path class="st0" d="M137.6,15.6c-5.1-5.1-11.1-9-17.7-11.7c-6.4-2.6-13.2-3.9-20-3.9c-6.9,0-13.6,1.3-20,3.9
	c-6.6,2.7-12.6,6.7-17.7,11.7c-5.1,5.1-9,11-11.6,17.7c-2.6,6.4-3.9,13.2-3.9,20c0,6.9,1.3,13.6,3.9,20C53.3,80,57.2,86,62.3,91.1
	c6.3,6.3,14.3,11,22.9,13.5v90.3c0,2,1.3,4,3.4,4.8c0.4,0.2,1,0.2,1.4,0.2l20.2,0c0.5,0,1-0.1,1.4-0.2c2.2-0.8,3.5-2.8,3.4-4.9
	l0-12.6l17.9,0c0.5,0,1-0.1,1.4-0.2c2.2-0.8,3.5-2.8,3.4-4.9l0-20c0-0.5-0.1-1-0.2-1.4c-0.8-2.2-2.8-3.5-4.9-3.4l-17.7,0l-0.1-47.9
	c8.6-2.5,16.4-7.1,22.8-13.5c5.1-5.1,9-11.1,11.7-17.7c2.6-6.4,3.9-13.2,3.9-20c0-6.9-1.3-13.6-3.9-20
	C146.7,26.5,142.7,20.6,137.6,15.6z M126.4,53.3c0,7.1-2.7,13.8-7.7,18.7c-5,5-11.7,7.7-18.7,7.7S86.3,77,81.3,72.1
	c-5-5-7.7-11.7-7.7-18.7s2.7-13.8,7.7-18.7c5-5,11.7-7.7,18.7-7.7c7.1,0,13.8,2.7,18.7,7.7C123.6,39.6,126.4,46.2,126.4,53.3z"/>
</svg>
