<?xml version="1.0" encoding="utf-8"?>
<!-- Generator: Adobe Illustrator 21.0.0, SVG Export Plug-In . SVG Version: 6.00 Build 0)  -->
<svg version="1.1" id="Layer_1" xmlns="http://www.w3.org/2000/svg" xmlns:xlink="http://www.w3.org/1999/xlink" x="0px" y="0px"
	 viewBox="0 0 200 200" style="enable-background:new 0 0 200 200;" xml:space="preserve">
<style type="text/css">
	.st0{fill:#4C4C4C;}
</style>
<path class="st0" d="M178,96.5l-20.9,6c1.5,5.3,2.3,10.8,2.3,16.4c0,32.7-26.6,59.4-59.4,59.4s-59.4-26.6-59.4-59.4
	c0-29.2,21.2-53.6,49.1-58.4v23.9c0,11,12.9,17,21.3,9.9l42.4-35.7c6.2-5.2,6.2-14.7,0-19.9L111,3.1C102.6-4,89.7,2,89.7,13v25.5
	c-39.9,5.1-70.8,39.2-70.8,80.4c0,44.7,36.4,81.1,81.1,81.1s81.1-36.4,81.1-81.1C181.1,111.3,180.1,103.8,178,96.5z"/>
</svg>
