<?xml version="1.0" encoding="utf-8"?>
<!-- Generator: Adobe Illustrator 21.0.0, SVG Export Plug-In . SVG Version: 6.00 Build 0)  -->
<svg version="1.1" id="Layer_1" xmlns="http://www.w3.org/2000/svg" xmlns:xlink="http://www.w3.org/1999/xlink" x="0px" y="0px"
	 viewBox="0 0 165 165" style="enable-background:new 0 0 165 165;" xml:space="preserve">
<style type="text/css">
	.st0{fill:#DD6F6F;}
</style>
<path class="st0" d="M92.4,81.7l18.3-18.3c2.7-2.7,2.7-7.2,0-9.9c-2.7-2.7-7.2-2.7-9.9,0L82.5,71.9L64.2,53.6
	c-2.7-2.7-7.2-2.7-9.9,0c-2.7,2.7-2.7,7.2,0,9.9l18.3,18.3L54.3,100c-2.7,2.7-2.7,7.2,0,9.9c1.4,1.4,3.2,2,4.9,2s3.6-0.7,4.9-2
	l18.3-18.3l18.3,18.3c1.4,1.4,3.2,2,5,2s3.6-0.7,5-2c2.7-2.7,2.7-7.2,0-9.9L92.4,81.7z"/>
<g>
	<path class="st0" d="M82.5,165C37,165,0,128,0,82.5C0,37,37,0,82.5,0C128,0,165,37,165,82.5C165,128,128,165,82.5,165z M82.5,12
		C43.6,12,12,43.6,12,82.5S43.6,153,82.5,153S153,121.4,153,82.5S121.4,12,82.5,12z"/>
</g>
</svg>
