<?xml version="1.0" encoding="utf-8"?>
<!-- Generator: Adobe Illustrator 21.0.0, SVG Export Plug-In . SVG Version: 6.00 Build 0)  -->
<svg version="1.1" id="Layer_1" xmlns="http://www.w3.org/2000/svg" xmlns:xlink="http://www.w3.org/1999/xlink" x="0px" y="0px"
	 viewBox="0 0 200 200" style="enable-background:new 0 0 200 200;" xml:space="preserve">
<style type="text/css">
	.st0{fill:#FFFFFF;}
</style>
<g>
	<polygon class="st0" points="136.4,148.4 88.8,117.1 88.8,61.4 102.4,61.4 102.4,109.7 143.8,137 	"/>
	<g>
		<polygon class="st0" points="130.9,34.1 186.9,34.1 158.9,0 		"/>
		<g>
			<rect x="147.6" y="34.2" class="st0" width="22.8" height="45.5"/>
			<path class="st0" d="M191.1,108.8c0-6.6-0.8-13.1-2.1-19.3h-17.5c1.6,6.2,2.6,12.6,2.6,19.3c0,40.8-33.2,74-74,74s-74-33.2-74-74
				s33.2-74,74-74c7.9,0,15.5,1.3,22.6,3.6V20.7c-7.2-1.8-14.8-2.9-22.6-2.9c-50.3,0-91.1,40.8-91.1,91.1S49.7,200,100,200
				C150.2,200,191.1,159.2,191.1,108.8z"/>
		</g>
	</g>
</g>
</svg>
