<?xml version="1.0" encoding="iso-8859-1"?>
<!-- Generator: Adobe Illustrator 16.0.0, SVG Export Plug-In . SVG Version: 6.00 Build 0)  -->
<!DOCTYPE svg PUBLIC "-//W3C//DTD SVG 1.1//EN" "http://www.w3.org/Graphics/SVG/1.1/DTD/svg11.dtd">
<svg version="1.1" id="Capa_1" xmlns="http://www.w3.org/2000/svg" xmlns:xlink="http://www.w3.org/1999/xlink" x="0px" y="0px"
	 width="350px" height="350px" viewBox="0 0 350 350" style="enable-background:new 0 0 350 350;" xml:space="preserve">
<style type="text/css">
	.st0{fill:#808080;}
</style>
<g>
	<g>
		<polygon class="st0" points="40,310 40,0 0,0 0,350 350,350 350,310 		"/>
		<path class="st0" d="M84.26,255.771c13.785,0,25-11.215,25-25c0-0.864-0.045-1.726-0.134-2.58l44.485-48.789
			c3.766,0.201,7.541-0.469,10.983-1.913l53.967,30.172c2.974,10.528,12.579,18.108,24.032,18.108c13.785,0,25-11.215,25-25
			c0-0.908-0.05-1.814-0.149-2.716l54.221-69.989c13.135-0.73,23.596-11.647,23.596-24.961c0-13.785-11.215-25-25-25
			s-25,11.215-25,25c0,1.092,0.071,2.178,0.213,3.252l-53.786,69.43c-2.669,0.096-5.271,0.612-7.735,1.526l-55.35-30.944
			c-3.357-9.957-12.721-16.93-23.674-16.93c-13.785,0-25,11.215-25,25c0,0.157,0.002,0.314,0.005,0.472L83.55,205.779
			c-13.459,0.378-24.29,11.443-24.29,24.992C59.26,244.557,70.475,255.771,84.26,255.771z"/>
	</g>
</g>
</svg>
