<svg xmlns="http://www.w3.org/2000/svg" xmlns:xlink="http://www.w3.org/1999/xlink" viewBox="0 0 438.72 438.72" preserveAspectRatio="xMinYMin meet">
<style type="text/css">
    .st0{fill:#4c4c4c;}
</style>
<path class="st0" d="m 187.21195,19.874616 -8.12331,40.448076 0,0.08297 -0.58321,2.903964 0,0.04142 c -2.9511,11.465052 -13.39508,19.954386 -25.82796,19.954386 -3.8031,0 -7.39461,-0.807694 -10.66445,-2.240201 l -39.11685,-26.011227 -0.24995,0.248912 -0.45824,-0.331882 -47.156862,46.919786 27.32764,40.77996 c 0.016,0.0408 0.0259,0.0838 0.0416,0.12439 3.69446,9.50551 1.7024,20.70668 -5.99875,28.37589 -3.12707,3.11409 -6.84595,5.26973 -10.78942,6.51317 l -0.0416,0.0414 -44.990628,8.96081 -0.04166,0 0.04166,33.18817 -0.04166,33.18816 0.04166,0 44.990628,8.96081 0.0416,0.0414 c 3.94347,1.24344 7.66235,3.39908 10.78942,6.51317 7.70115,7.66921 9.69321,18.87039 5.99875,28.37589 -0.0159,0.0408 -0.0256,0.0838 -0.0416,0.12439 l -27.32764,40.77996 47.156862,46.91977 0.45824,-0.33188 0.24995,0.24891 39.11685,-26.01123 c 3.26984,-1.4325 6.86135,-2.2402 10.66445,-2.2402 12.43288,0 22.87686,8.48934 25.82796,19.95439 l 0,0.0414 0.58321,2.90396 0,0.083 8.12331,40.44808 66.65279,0 8.12331,-40.48956 0,-0.0414 0.58321,-2.90397 c 0.003,-0.0133 -0.003,-0.0283 0,-0.0414 2.95109,-11.46505 13.39508,-19.95438 25.82795,-19.95438 3.80311,0 7.39461,0.80769 10.66445,2.2402 l 39.11686,26.01123 0.24994,-0.24892 0.45824,0.33189 47.15685,-46.91978 -27.32764,-40.77996 c -0.016,-0.0408 -0.0257,-0.0836 -0.0416,-0.12439 -3.69446,-9.5055 -1.7024,-20.70668 5.99875,-28.37588 3.12707,-3.1141 6.84595,-5.26974 10.78942,-6.51318 l 0.0416,-0.0414 44.99063,-8.9608 0.0416,0 -0.0416,-33.18817 0.0416,-33.18817 -0.0416,0 -44.99063,-8.9608 -0.0416,-0.0414 c -3.94347,-1.24344 -7.66235,-3.39908 -10.78942,-6.51318 -7.70115,-7.6692 -9.69321,-18.87038 -5.99875,-28.37588 0.0159,-0.0408 0.0256,-0.0838 0.0416,-0.12439 l 27.32764,-40.77996 -47.15685,-46.91979 -0.45824,0.331882 -0.24994,-0.248911 -39.11686,26.011226 c -3.26984,1.432508 -6.86134,2.240201 -10.66445,2.240201 -12.43287,0 -22.87686,-8.489334 -25.82795,-19.954385 -0.003,-0.01328 0.003,-0.02854 0,-0.04142 l -0.58321,-2.903965 0,-0.04142 -8.12331,-40.489561 -66.65279,0 z m 33.32639,134.495064 c 0.69206,0.003 1.39575,0.0182 2.0829,0.0414 7.18257,0.24483 14.08765,1.6005 20.53739,3.94109 0.95403,0.34622 1.89926,0.73237 2.83275,1.1201 0.90555,0.37613 1.78094,0.78893 2.66611,1.20307 0.85698,0.40097 1.70423,0.80889 2.54113,1.24456 0.0545,0.0287 0.11211,0.0542 0.16664,0.083 0.83542,0.43786 1.64349,0.89745 2.45782,1.36901 0.41994,0.24522 0.83418,0.49165 1.24974,0.74674 1.52376,0.93528 2.99772,1.91932 4.4574,2.98693 2.91937,2.13522 5.71911,4.55542 8.3316,7.21843 12.46522,12.70626 18.75159,29.11886 18.91273,45.55076 -0.16114,16.4319 -6.44751,32.8445 -18.91273,45.55076 -2.61249,2.663 -5.41223,5.0832 -8.3316,7.21842 -1.45968,1.06761 -2.93364,2.05166 -4.4574,2.98694 -0.41557,0.25508 -0.8298,0.50151 -1.24974,0.74673 -0.81433,0.47157 -1.6224,0.93116 -2.45782,1.36901 -0.0545,0.0288 -0.11211,0.0543 -0.16664,0.083 -0.8369,0.43566 -1.68415,0.84359 -2.54113,1.24455 -0.88518,0.41415 -1.76056,0.82694 -2.66611,1.20307 -0.9335,0.38773 -1.87872,0.77388 -2.83275,1.1201 -6.44974,2.34059 -13.35482,3.69626 -20.53739,3.9411 -0.68715,0.0234 -1.39084,0.039 -2.0829,0.0414 -0.69205,-0.003 -1.39575,-0.0181 -2.0829,-0.0414 -7.18257,-0.24484 -14.08767,-1.60051 -20.53739,-3.9411 -0.0289,-0.0106 -0.0544,-0.0308 -0.0833,-0.0414 -0.79659,-0.29031 -1.5922,-0.59333 -2.3745,-0.91267 -0.12677,-0.0522 -0.24836,-0.11284 -0.37492,-0.16594 -0.90556,-0.37613 -1.78094,-0.78892 -2.66611,-1.20307 -0.58642,-0.27436 -1.17257,-0.53902 -1.74964,-0.82971 -0.26324,-0.13378 -0.52972,-0.27738 -0.7915,-0.41485 -0.0552,-0.0287 -0.11158,-0.0542 -0.16663,-0.083 -0.83543,-0.43786 -1.6435,-0.89745 -2.45783,-1.36901 -0.42062,-0.24358 -0.83494,-0.49436 -1.24974,-0.74673 -1.52376,-0.93529 -2.99772,-1.91933 -4.4574,-2.98694 -2.91937,-2.13522 -5.7191,-4.55542 -8.3316,-7.21843 -12.46523,-12.70626 -18.75159,-29.11886 -18.91273,-45.55076 0.16114,-16.4319 6.4475,-32.84449 18.91273,-45.55076 2.6125,-2.663 5.41223,-5.0832 8.3316,-7.21842 1.45968,-1.06761 2.93364,-2.05165 4.4574,-2.98694 0.4148,-0.25237 0.82912,-0.50316 1.24974,-0.74673 0.81433,-0.47156 1.6224,-0.93115 2.45783,-1.36901 0.055,-0.0288 0.11144,-0.0543 0.16663,-0.083 0.26178,-0.13747 0.52826,-0.28107 0.7915,-0.41485 0.57707,-0.29069 1.16322,-0.55535 1.74964,-0.82971 0.88517,-0.41415 1.76055,-0.82694 2.66611,-1.20307 0.1265,-0.053 0.24815,-0.11377 0.37492,-0.16594 0.78232,-0.31934 1.57791,-0.62236 2.3745,-0.91268 0.0289,-0.0106 0.0544,-0.0308 0.0833,-0.0414 6.44974,-2.34059 13.35482,-3.69626 20.53739,-3.9411 0.68715,-0.0234 1.39085,-0.0388 2.0829,-0.0414 z"/>
</svg>
