<?xml version="1.0" encoding="UTF-8"?>
<!DOCTYPE svg PUBLIC "-//W3C//DTD SVG 1.1//EN" "http://www.w3.org/Graphics/SVG/1.1/DTD/svg11.dtd">
<svg version="1.1" xmlns="http://www.w3.org/2000/svg" xmlns:xlink="http://www.w3.org/1999/xlink" x="0px" y="0px" viewBox="0 0 1000 1000" enable-background="new 0 0 1000 1000" xml:space="preserve">
<style type="text/css">
    .st0{fill:#4c4c4c;}
</style>
<g>
    <path class="st0" d="M949.4,890c-26.5,26.6-60.5,40.7-98,40.7H148.7C72.2,930.6,10,868.4,10,791.9V363.1c0-37.6,14.1-71.5,40.6-98.1c26.6-26.6,60.5-40.6,98-40.6h105.7l27.2-67.9c21.5-53.8,70.8-87.2,128.8-87.2h179.4c57.9,0,107.2,33.4,128.8,87.2l27.1,67.8h105.7c76.5,0,138.6,62.2,138.6,138.7v428.8C990,829.6,975.9,863.5,949.4,890z M907.1,363.1c0-30.8-25-55.8-55.8-55.8H689.5l-48-120c-8.8-22-28.1-35.1-51.8-35.1H410.3c-23.7,0-43,13.1-51.8,35l-48,120H148.7c-15.8,0-28.3,5.2-39.5,16.4c-11.1,11.1-16.3,23.7-16.3,39.4v428.8c0,30.8,25,55.8,55.8,55.8h702.7c15.8,0,28.3-5.2,39.4-16.3c11.1-11.1,16.3-23.6,16.3-39.4V363.1z M500.1,793.8c-130.1,0-236-105.8-236-235.7c0-130,105.9-235.7,236-235.7c130.1,0,236,105.7,236,235.7C736.2,688.1,630.3,793.8,500.1,793.8z M500.1,405.3c-84.4,0-153.1,68.5-153.1,152.8c0,84.2,68.7,152.8,153.1,152.8c84.5,0,153.1-68.6,153.1-152.8C653.3,473.8,584.6,405.3,500.1,405.3z"/>
</g>
</svg>
