<?xml version="1.0" encoding="utf-8"?>
<!-- Generator: Adobe Illustrator 21.0.0, SVG Export Plug-In . SVG Version: 6.00 Build 0)  -->
<svg version="1.1" id="Capa_1" xmlns="http://www.w3.org/2000/svg" xmlns:xlink="http://www.w3.org/1999/xlink" x="0px" y="0px"
	 viewBox="0 0 385.3 385.3" style="enable-background:new 0 0 385.3 385.3;" xml:space="preserve">
<style type="text/css">
	.st0{fill:#FFFFFF;}
</style>
<g>
	<g id="Layer_5_62_">
		<g>
			<path class="st0" d="M196.6,89.5c24.7,0,44.7-20,44.7-44.8c0-24.7-20-44.7-44.7-44.7c-24.7,0-44.8,20-44.8,44.7
				C151.8,69.5,171.9,89.5,196.6,89.5z"/>
			<path class="st0" d="M289.8,220.9c-5.6-12.8-10.2-26.1-14.8-39c-11.9-33.8-26-81.5-48.7-81.5c-0.9,0-52.4,0-59.7,0
				c-23.6,0-36.9,47.7-48.7,81.5c-4.5,12.9-9.2,26.2-14.8,39c-3.5,8.1-3.2,17.6,3.8,21.9c1.1,0.7,0.8,4,0.7,5.9c0,0.7-0.1,2.2-2,2.2
				c-0.5,0-1.8,0-1.8,0c-5.5,0-10,4.5-10,10v60.9c0,5.5,4.5,10,10,10h18.9c5.5,0,10-4.5,10-10v-60.9c0-5.5-4.5-10-10-10
				c0,0-1.3,0-1.8,0c-1.3,0-1.5-1.5-1.7-2.2c-0.4-1.3,0-3.9,1.2-4.4c4.3-1.7,7.6-5.9,9.7-10.7c4.4-10,11.5-31.7,16.1-45.1
				c1.1-3.1,2.4-5.1,2.2,0.3v41.7c0,2.1-0.4,8.4,1.3,10.5c1.3,1.6,3.7,1,3.7,5v117.7c0,11.9,8.2,21.6,19.7,21.6s17.7-9.5,17.7-21.4
				c0,0,0-84.8,0-113.1c0-1.4,0.3-3.5,4.4-3.5c0.4,0,0.6,0,1,0c4.2,0,4.5,2.4,4.5,3.2c0,28.3,0,113.1,0,113.1
				c0,11.9,6.3,21.7,17.8,21.7s19.7-9.7,19.7-21.6L238,246.7c0-1.9,2.6-3.2,3.5-4.4c1.9-2.3,3-5.2,3-8.4V187c0-4.5,0.9-1.9,1.4-0.2
				c3.6,13.4,10.8,37.5,15.3,48c2.9,6.5,7.1,10.4,13.8,10.4c2.3,0,4.7-0.5,7-1.5C290.7,239.9,293.7,229.7,289.8,220.9z M213.8,168
				l-14.7,13.6c-1.4,1.3-3.6,1.3-5,0L179.3,168c-1.4-1.3-2.2-3.8-1.8-5.6l7.7-36.7c0.1-0.5,0.5-2.2,0.4-2.6
				c-0.2-1.9-0.6-7.7-0.6-7.7c-0.1-1.9,1.3-3.4,3.1-3.4H205c1.9,0,3.3,1.5,3.1,3.4c0,0-0.5,5.8-0.6,7.7c0,0.4,0.3,2,0.4,2.6
				l7.7,36.7C216,164.2,215.2,166.7,213.8,168z"/>
		</g>
	</g>
</g>
</svg>
