<?xml version="1.0" encoding="utf-8"?>
<!-- Generator: Adobe Illustrator 21.0.0, SVG Export Plug-In . SVG Version: 6.00 Build 0)  -->
<svg version="1.1" id="Layer_1" xmlns="http://www.w3.org/2000/svg" xmlns:xlink="http://www.w3.org/1999/xlink" x="0px" y="0px"
	 viewBox="0 0 255.4 255.4" style="enable-background:new 0 0 255.4 255.4;" xml:space="preserve">
<style type="text/css">
	.st0{fill:#FFFFFF;}
</style>
<g>
	<g>
		<path class="st0" d="M148.9,171.1l-2.5-13.5c3.7-2,7.1-4.6,10.3-7.6c24.5-3.3,52.5-8.6,52.5-8.6c-20.5-9.6-26.1-26.2-28.4-43.8
			c7.9-0.9,14.1-7.7,14.1-15.9c0-2.5-0.6-4.9-1.7-7.1c8.3-6.9,13-15.3,13-24.8c0-3.7-2.9-6.6-6.5-6.6c-3.7-0.3-16.2-10.1-24.4-16.5
			C158.3,13.6,140.9,0,127.7,0c-13.6,0-31.2,13.8-48.2,27.1c-8.5,6.7-20.2,15.8-23.7,16.2c-3.7,0-6.6,3-6.6,6.6
			c0,9.4,4.7,17.9,13,24.8c-1.1,2.1-1.7,4.5-1.7,7.1c0,8.2,6.2,14.9,14.1,15.9c-2.2,17.7-7.9,34.2-28.4,43.8c0,0,28,5.2,52.5,8.6
			c3.3,3.2,6.9,5.9,10.7,7.9l-2.3,12.3c-13.2,17.7-72.5,17.6-72.5,85.2h78l11.1-30.5l-14.6-14.6l18.4-18.4l18.4,18.4l-14.6,14.6
			l11.1,30.5h78C220.7,189,163.4,187.9,148.9,171.1z M63.2,54.6c6.1-2.8,13.7-8.7,24.4-17c13.1-10.2,31-24.3,40.1-24.3
			c8.6,0,26.4,13.9,39.4,24c11,8.6,18.9,14.5,25.1,17.4c-1.4,4.2-4.8,8.1-9.7,11.6c-1.2-0.3-2.3-0.4-3.6-0.4h-46l24.6-18h-20.4
			l-9.7,5.5l-10-5.5H97.8l24.6,18h-46c-1.2,0-2.4,0.2-3.6,0.4C68,62.7,64.6,58.8,63.2,54.6z M76.4,84.5c-1.5,0-2.8-1.2-2.8-2.8
			s1.2-2.8,2.8-2.8h102.5c1.5,0,2.8,1.2,2.8,2.8c0,1.5-1.2,2.8-2.8,2.8H76.4z"/>
	</g>
</g>
</svg>
