<?xml version="1.0" encoding="utf-8"?>
<!-- Generator: Adobe Illustrator 21.0.0, SVG Export Plug-In . SVG Version: 6.00 Build 0)  -->
<svg version="1.1" id="Capa_1" xmlns="http://www.w3.org/2000/svg" xmlns:xlink="http://www.w3.org/1999/xlink" x="0px" y="0px"
	 viewBox="0 0 432.4 432.4" style="enable-background:new 0 0 432.4 432.4;" xml:space="preserve">
<style type="text/css">
	.st0{fill:#84bef0;}
</style>
<g>
	<g>
		<path class="st0" d="M216.2,432.4c119.3,0,216.2-96.9,216.2-216.2S335.5,0,216.2,0S0,96.9,0,216.2S96.9,432.4,216.2,432.4z
			 M216.2,34c100.6,0,182.2,81.9,182.2,182.2s-81.9,182.2-182.2,182.2S34,316.8,34,216.2S115.6,34,216.2,34z"/>
		<path class="st0" d="M188.7,252.2l72.8,56.7c3.1,2.3,6.8,3.7,10.5,3.7c5.1,0,10.2-2.3,13.3-6.5c5.7-7.4,4.5-18.1-3.1-23.8
			l-66-51.6V114.2c0-9.3-7.6-17-17-17s-17,7.7-17,17v124.7C182.2,244.2,184.7,249.1,188.7,252.2z"/>
	</g>
</g>
</svg>
