<?xml version="1.0" encoding="utf-8"?>
<!-- Generator: Adobe Illustrator 21.0.0, SVG Export Plug-In . SVG Version: 6.00 Build 0)  -->
<svg version="1.1" id="Capa_1" xmlns="http://www.w3.org/2000/svg" xmlns:xlink="http://www.w3.org/1999/xlink" x="0px" y="0px"
	 viewBox="0 0 385.6 385.6" style="enable-background:new 0 0 385.6 385.6;" xml:space="preserve">
<style type="text/css">
	.st0{fill:#FFFFFF;}
</style>
<g>
	<g id="Layer_5_97_">
		<g>
			<path class="st0" d="M236.9,76.7c-11.6-10.5-27.4-16.4-44.4-16.4c-17,0-32.8,5.8-44.4,16.4c-12.1,11-18.8,26.3-18.8,43.1
				c0,26.3,10.9,36.9,19.6,45.4l1.2,1.1c5.1,4.9,12.1,8.8,9.8,16.1c-0.8,2.4-2.7,4.2-2.7,6.7c0,5.1,1.5,11.6,13.1,15.5
				c1.1,0.4,1.5,1.2,1.8,1.7c2.6,3.8,8.2,7.6,20.5,7.6c12.1,0,17.8-3.8,20.4-7.6c0.3-0.4,0.7-1.3,1.7-1.6
				c12.3-4.1,13.3-11.4,13.3-15.6c0-2.5-1.9-4.3-2.7-6.7c-2.4-7.4,4.7-11.3,9.7-16.1l1.2-1.2c8.7-8.5,19.6-19,19.6-45.2
				C255.7,103,249,87.6,236.9,76.7z M192.5,76.5c27.3,0,47.1,18.2,47.1,43.3c0,19.4-6.8,26-14.7,33.7c-7.8,7.6-15.5,16.2-16.2,30.2
				c0,0.5,0,1.3-1.2,2.1c-1.5,0.8-4.9,2.1-15,2.1c-10.3,0-13.5-1.3-14.9-2c-1.3-0.9-1.3-1.9-1.4-2.5c-0.8-14.8-9.2-23-16.1-29.7
				c-7.9-7.7-14.8-14.4-14.8-33.8C145.4,94.7,165.2,76.5,192.5,76.5z"/>
			<path class="st0" d="M323.8,378.8l-45.5-120.4c-1.2-3.1-11-23.2-29.1-23.2c-5.8,0-105.6,0.1-108.8,0.1c0,0-0.5,0-3.8,0
				c-20.4,0-28,20-29.1,23.1L61.8,378.8c-1.2,3.1-0.5,6.8,5.9,6.8c0,0,24.6,0,33.6,0c6.1,0,8-5.4,8-5.4l21.7-58.3
				c0,0,2.7-7.5,2.7,0.6c0,11.1,0.1,40.8,0.2,55.1c0,4.8,0.8,7.9,6.5,7.9c29.5,0,83.2,0,110.9,0c7.9,0,6.9-4.1,6.9-10.3
				c0-15.1-0.1-42.5-0.1-53.2c0-5.5,1.9-1.7,1.9-1.7l20.4,58.9c0,0,1.9,6.3,9.2,6.3c7.7,0,27.9,0,27.9,0
				C324.2,385.6,325,381.8,323.8,378.8z M219.6,344.3l-22.9,21.1c-2.1,2-5.7,2-7.8,0L166,344.3c-2.1-2-3.4-5.9-2.8-8.8l12-57.1
				c0.2-0.9,0.7-3.4,0.7-4c-0.2-3-0.9-12-0.9-12c-0.2-2.9,2-5.3,4.9-5.3h26.1c2.9,0,5.1,2.4,4.9,5.3c0,0-0.7,9-0.9,12
				c0,0.6,0.5,3.2,0.7,4l11.9,57.1C223,338.3,221.8,342.3,219.6,344.3z"/>
			<g>
				<path class="st0" d="M198.7,140.6c0,3.4-2.8,6.2-6.2,6.2l0,0c-3.4,0-6.2-2.8-6.2-6.2l-2.9-39.6c0-3.4,3.3-6.2,9.2-6.2l0,0
					c6.1,0,9.2,2.8,9.2,6.2L198.7,140.6z"/>
				<circle class="st0" cx="192.5" cy="162.6" r="7"/>
			</g>
			<g>
				<path class="st0" d="M192.5,40.2c-5,0-9-4-9-9V9c0-5,4-9,9-9c5,0,9,4,9,9v22.2C201.5,36.2,197.4,40.2,192.5,40.2z"/>
			</g>
			<g>
				<path class="st0" d="M265.2,70.2c-3,0-6-1.5-7.7-4.3c-2.6-4.2-1.2-9.8,3-12.4l20-12.2c4.2-2.6,9.8-1.2,12.4,3
					c2.6,4.2,1.2,9.8-3,12.4l-20,12.2C268.4,69.8,266.8,70.2,265.2,70.2z"/>
			</g>
			<g>
				<path class="st0" d="M119.8,70.2c-1.6,0-3.2-0.4-4.7-1.3l-20-12.2c-4.2-2.6-5.6-8.1-3-12.4c2.6-4.2,8.1-5.6,12.4-3l20,12.2
					c4.2,2.6,5.6,8.1,3,12.4C125.8,68.7,122.8,70.2,119.8,70.2z"/>
			</g>
		</g>
	</g>
</g>
</svg>
