<?xml version="1.0" encoding="utf-8"?>
<!-- Generator: Adobe Illustrator 21.0.0, SVG Export Plug-In . SVG Version: 6.00 Build 0)  -->
<svg version="1.1" id="Capa_1" xmlns="http://www.w3.org/2000/svg" xmlns:xlink="http://www.w3.org/1999/xlink" x="0px" y="0px"
	 viewBox="0 0 200 200" style="enable-background:new 0 0 200 200;" xml:space="preserve">
<style type="text/css">
	.st0{fill:#FFFFFF;}
</style>
<path class="st0" d="M197.8,63.1c0-8.5-1.7-16.8-5-24.6c-3.2-7.5-7.7-14.3-13.5-20c-5.8-5.8-12.5-10.3-20-13.5
	c-7.8-3.3-16.1-5-24.6-5S118,1.7,110.2,5c-7.5,3.2-14.3,7.7-20,13.5c-5.8,5.8-10.3,12.5-13.5,20c-3.3,7.8-5,16.1-5,24.6
	c0,10.6,2.7,21.1,7.8,30.4L3.9,168.9c-1.7,1.7-2.3,4.4-1.2,6.9c0.2,0.5,0.6,1,1,1.4l16.9,16.9c0.4,0.4,0.9,0.7,1.4,1
	c2.5,1.1,5.2,0.6,6.9-1.2l10.5-10.5l15,15c0.4,0.4,0.9,0.7,1.4,1c2.5,1.1,5.2,0.6,6.9-1.2l16.7-16.7c0.4-0.4,0.7-0.9,1-1.4
	c1.1-2.5,0.6-5.2-1.2-6.9l-14.8-14.8l40-40c9.3,5.1,19.7,7.8,30.4,7.8c8.5,0,16.8-1.7,24.6-5c7.5-3.2,14.3-7.7,20-13.5
	c5.8-5.8,10.3-12.5,13.5-20C196.2,79.8,197.8,71.6,197.8,63.1z M156.9,85.2c-5.9,5.9-13.8,9.2-22.1,9.2s-16.2-3.3-22.1-9.2
	c-5.9-5.9-9.2-13.8-9.2-22.1c0-8.4,3.3-16.2,9.2-22.1s13.8-9.2,22.1-9.2s16.2,3.3,22.1,9.2c5.9,5.9,9.2,13.8,9.2,22.1
	C166,71.4,162.8,79.3,156.9,85.2z"/>
</svg>
