<?xml version="1.0" encoding="utf-8"?>
<!-- Generator: Adobe Illustrator 21.0.0, SVG Export Plug-In . SVG Version: 6.00 Build 0)  -->
<svg version="1.1" id="Capa_1" xmlns="http://www.w3.org/2000/svg" xmlns:xlink="http://www.w3.org/1999/xlink" x="0px" y="0px"
	 viewBox="0 0 348.2 348.2" style="enable-background:new 0 0 348.2 348.2;" xml:space="preserve">
<style type="text/css">
	.st0{fill:#FFFFFF;}
</style>
<g>
	<g id="Layer_5_50_">
		<g>
			<path class="st0" d="M336.5,265.2H11.6c-5.6,0-10.2,4.6-10.2,10.2V338c0,5.6,4.6,10.2,10.2,10.2h324.9c5.6,0,10.2-4.6,10.2-10.2
				v-62.6C346.8,269.8,342.2,265.2,336.5,265.2z M315.1,302.3c0,3.9-3.1,7-7,7h-70c-3.9,0-7-3.1-7-7v-9c0-3.9,3.1-7,7-7h70
				c3.9,0,7,3.1,7,7V302.3z"/>
			<g>
				<path class="st0" d="M315.2,0H32.9c-7,0-12.6,5.7-12.6,12.6v90.6v43.5v83.4c0,7,5.7,12.6,12.6,12.6h282.3
					c7,0,12.6-5.7,12.6-12.6V12.6C327.9,5.7,322.2,0,315.2,0z M309.3,180.8c0,7-5.7,12.6-12.6,12.6H51.6c-7,0-12.6-5.7-12.6-12.6
					V33.5c0-7,5.7-12.6,12.6-12.6h245.1c7,0,12.6,5.7,12.6,12.6L309.3,180.8L309.3,180.8z"/>
				<g>
					<path class="st0" d="M66.6,89.2c-2.3,0-4.6-1.1-6.1-3.1c-2.5-3.4-1.8-8.1,1.6-10.6l42-31.1c3.4-2.5,8.1-1.8,10.7,1.6
						c2.5,3.4,1.8,8.1-1.6,10.6l-42,31.1C69.8,88.7,68.2,89.2,66.6,89.2z"/>
				</g>
				<g>
					<path class="st0" d="M70.8,129.2c-2.4,0-4.7-1.1-6.2-3.2c-2.4-3.4-1.6-8.2,1.8-10.6l90-63.7c3.4-2.4,8.2-1.6,10.6,1.8
						c2.4,3.4,1.6,8.2-1.8,10.6l-90,63.7C73.8,128.7,72.3,129.2,70.8,129.2z"/>
				</g>
			</g>
		</g>
	</g>
</g>
</svg>
