<?xml version="1.0" encoding="utf-8"?>
<!-- Generator: Adobe Illustrator 21.0.0, SVG Export Plug-In . SVG Version: 6.00 Build 0)  -->
<svg version="1.1" id="Layer_1" xmlns="http://www.w3.org/2000/svg" xmlns:xlink="http://www.w3.org/1999/xlink" x="0px" y="0px"
	 viewBox="0 0 512 512" style="enable-background:new 0 0 512 512;" xml:space="preserve">
<style type="text/css">
	.st0{fill:#FFFFFF;}
</style>
<g>
	<g>
		<g>
			<path class="st0" d="M238.5,286.7c-4,0.4-7.9,1-11.8,1.8c-2.7,0.5-4.6,2.8-4.6,5.6v91.9c0,3.1,2.5,5.7,5.7,5.7h56.5
				c3.1,0,5.7-2.5,5.7-5.7V294c0-2.7-1.9-5-4.6-5.6c-3.9-0.7-7.8-1.3-11.8-1.8c-3.3-0.4-6.2,2.3-6.2,5.6V332c0,6-4.5,11.3-10.5,11.7
				c-6.6,0.4-12.1-4.8-12.1-11.3v-40.1C244.8,288.9,241.8,286.3,238.5,286.7z"/>
			<path class="st0" d="M312.6,304.8v81c0,3.1,2.5,5.7,5.7,5.7h77.2c4,0,6.7-4,5.3-7.8c-14.9-37.3-43.7-67.5-80.1-84.1
				C316.8,298,312.6,300.7,312.6,304.8z"/>
			<path class="st0" d="M116.7,391.5h77.2c3.1,0,5.7-2.5,5.7-5.7v-81c0-4.1-4.3-6.9-8-5.1c-36.3,16.6-65.2,46.8-80.1,84.1
				C110,387.5,112.7,391.5,116.7,391.5z"/>
			<path class="st0" d="M410.1,419c-0.4-2.8-2.8-4.8-5.6-4.8H107.7c-2.8,0-5.2,2.1-5.6,4.8c-2.5,17.2-1.6,77.2-1.6,76.1
				c0,9.4,7.6,17,17,17h277.3c9.4,0,17-7.6,17-17C411.7,437.7,412.1,433.3,410.1,419z"/>
			<path class="st0" d="M196.4,55.6c37.3-19.9,82-20,119.3,0c4.5,2.4,9.6-2,8-6.8c-21.5-65.1-113.8-65.1-135.3,0
				C186.8,53.6,191.9,58,196.4,55.6z"/>
			<path class="st0" d="M256.1,272.3c57.6,0,104.5-46.9,104.5-104.5c0-34.9-17.3-67.3-46.3-86.8c-69.7-46.8-162.6,3.8-162.6,86.8
				C151.6,225.4,198.5,272.3,256.1,272.3z"/>
		</g>
	</g>
</g>
</svg>
