<?xml version="1.0" encoding="utf-8"?>
<!-- Generator: Adobe Illustrator 21.0.0, SVG Export Plug-In . SVG Version: 6.00 Build 0)  -->
<svg version="1.1" id="Layer_1" xmlns="http://www.w3.org/2000/svg" xmlns:xlink="http://www.w3.org/1999/xlink" x="0px" y="0px"
	 viewBox="0 0 200 200" style="enable-background:new 0 0 200 200;" xml:space="preserve">
<style type="text/css">
	.st0{fill:#808080;}
</style>
<g>
	<path class="st0" d="M100,19c44.7,0,81,36.2,81,81s-36.2,81-81,81s-81-36.2-81-81C19,55.3,55.2,19.1,99.8,19
		C99.9,19,99.9,19,100,19 M100,0C44.8,0,0,44.8,0,100s44.8,100,100,100s100-44.8,100-100S155.2,0,100,0z"/>
	<polygon class="st0" points="140,142.9 87.6,108.6 87.6,47.6 102.9,47.6 102.9,101 147.6,131.4 	"/>
</g>
</svg>
