<?xml version="1.0" ?>
<svg id="icons" viewBox="0 0 36 46" xmlns="http://www.w3.org/2000/svg">
    <style type="text/css">
        .st0{fill:#4c4c4c;}
    </style>
    <path class="st0" d="M36,17.63A17.84,17.84,0,0,0,18,0,17.84,17.84,0,0,0,0,17.63,17.24,17.24,0,0,0,3.56,28.16h0l12.83,17,0,0a2,2,0,0,0,.21.22l0.11,0.1,0,0,0.07,0a2,2,0,0,0,.43.22l0.15,0.05A2,2,0,0,0,18,46h0a2,2,0,0,0,.55-0.09l0.15-.05a2,2,0,0,0,.43-0.22l0.07,0,0,0,0.11-.1a2,2,0,0,0,.21-0.22l0,0,12.83-17h0A17.24,17.24,0,0,0,36,17.63ZM18,4A13.83,13.83,0,0,1,32,17.63a13.28,13.28,0,0,1-2.76,8.12h0L18,40.68,6.77,25.76h0A13.28,13.28,0,0,1,4,17.63,13.83,13.83,0,0,1,18,4Z" />
    <path class="st0" d="M18,24.63a7,7,0,1,0-7-7A7,7,0,0,0,18,24.63Zm0-10a3,3,0,1,1-3,3A3,3,0,0,1,18,14.63Z" />
</svg>
