<?xml version="1.0" encoding="utf-8"?>
<!-- Generator: Adobe Illustrator 21.0.0, SVG Export Plug-In . SVG Version: 6.00 Build 0)  -->
<svg version="1.1" id="Layer_1" xmlns="http://www.w3.org/2000/svg" xmlns:xlink="http://www.w3.org/1999/xlink" x="0px" y="0px"
	 viewBox="0 0 100 100" style="enable-background:new 0 0 100 100;" xml:space="preserve">
<style type="text/css">
	.st0{fill:#FFFFFF;}
</style>
<path class="st0" d="M91.2,15.8h-7v3.5c0,4.8-3.9,8.8-8.8,8.8s-8.8-3.9-8.8-8.8v-3.5H33.3v3.5c0,4.8-3.9,8.8-8.8,8.8
	s-8.8-3.9-8.8-8.8v-3.5h-7c-4.8,0-8.8,3.9-8.8,8.8v64.9c0,4.8,3.9,8.8,8.8,8.8h82.5c4.8,0,8.8-3.9,8.8-8.8V24.6
	C100,19.7,96.1,15.8,91.2,15.8z M93,89.5c0,1-0.8,1.8-1.8,1.8H8.8c-1,0-1.8-0.8-1.8-1.8V38.6c0-1,0.8-1.8,1.8-1.8h82.5
	c1,0,1.8,0.8,1.8,1.8V89.5z M29.8,61.4H17.5c-1.9,0-3.5-1.6-3.5-3.5V45.6c0-1.9,1.6-3.5,3.5-3.5h12.3c1.9,0,3.5,1.6,3.5,3.5v12.3
	C33.3,59.8,31.8,61.4,29.8,61.4z M29.8,86H17.5c-1.9,0-3.5-1.6-3.5-3.5V70.2c0-1.9,1.6-3.5,3.5-3.5h12.3c1.9,0,3.5,1.6,3.5,3.5v12.3
	C33.3,84.4,31.8,86,29.8,86z M56.1,61.4H43.9c-1.9,0-3.5-1.6-3.5-3.5V45.6c0-1.9,1.6-3.5,3.5-3.5h12.3c1.9,0,3.5,1.6,3.5,3.5v12.3
	C59.6,59.8,58.1,61.4,56.1,61.4z M56.1,86H43.9c-1.9,0-3.5-1.6-3.5-3.5V70.2c0-1.9,1.6-3.5,3.5-3.5h12.3c1.9,0,3.5,1.6,3.5,3.5v12.3
	C59.6,84.4,58.1,86,56.1,86z M82.5,61.4H70.2c-1.9,0-3.5-1.6-3.5-3.5V45.6c0-1.9,1.6-3.5,3.5-3.5h12.3c1.9,0,3.5,1.6,3.5,3.5v12.3
	C86,59.8,84.4,61.4,82.5,61.4z M82.5,86H70.2c-1.9,0-3.5-1.6-3.5-3.5V70.2c0-1.9,1.6-3.5,3.5-3.5h12.3c1.9,0,3.5,1.6,3.5,3.5v12.3
	C86,84.4,84.4,86,82.5,86z M29.8,7v12.3c0,2.9-2.4,5.3-5.3,5.3s-5.3-2.4-5.3-5.3V7c0-2.9,2.4-5.3,5.3-5.3S29.8,4.1,29.8,7z M80.7,7
	v12.3c0,2.9-2.4,5.3-5.3,5.3c-2.9,0-5.3-2.4-5.3-5.3V7c0-2.9,2.4-5.3,5.3-5.3C78.4,1.8,80.7,4.1,80.7,7z"/>
</svg>
