<?xml version="1.0" encoding="utf-8"?>
<!-- Generator: Adobe Illustrator 21.0.0, SVG Export Plug-In . SVG Version: 6.00 Build 0)  -->
<svg version="1.1" id="Capa_1" xmlns="http://www.w3.org/2000/svg" xmlns:xlink="http://www.w3.org/1999/xlink" x="0px" y="0px"
	 viewBox="0 0 346.2 346.2" style="enable-background:new 0 0 346.2 346.2;" xml:space="preserve">
<style type="text/css">
	.st0{fill:#FFFFFF;}
</style>
<g>
	<g id="Layer_5_98_">
		<g>
			<g>
				<path class="st0" d="M211,193.1c32.4,0,58.6-26,58.6-58c0-32-26.2-58-58.6-58c-32.4,0-58.6,26-58.6,58
					C152.4,167.1,178.6,193.1,211,193.1z"/>
			</g>
			<path class="st0" d="M323.4,335.4l-39.1-103.3c-1-2.6-9.4-19.9-25-19.9c-4.9,0-90.6,0.1-93.4,0.1c0,0-0.5,0-3.2,0
				c-17.5,0-24,17.2-25,19.8L98.6,335.4c-1,2.6-0.4,5.9,5.1,5.9c0,0,21.1,0,28.8,0c5.3,0,6.9-4.6,6.9-4.6l18.6-50
				c0,0,2.3-6.4,2.3,0.5c0,9.5,0.1,35,0.2,47.3c0,4.1,0.7,6.8,5.5,6.8c25.3,0,71.4,0,95.2,0c6.8,0,5.9-3.5,5.9-8.8
				c0-12.9-0.1-36.5-0.1-45.6c0-4.7,1.7-1.5,1.7-1.5l17.5,50.5c0,0,1.7,5.4,7.9,5.4c6.6,0,23.9,0,23.9,0
				C323.7,341.3,324.4,338,323.4,335.4z"/>
			<path class="st0" d="M81.1,294.3c-11.7,0-46.8,0-46.8,0c-4.1,0-7.4,3.3-7.4,7.4v32.2c0,4.1,3.3,7.4,7.4,7.4c0,0,23.2,0,30.9,0
				c6.2,0,8.5-7.7,8.5-7.7L86,299.9C86,299.9,87.6,294.3,81.1,294.3z"/>
			<path class="st0" d="M107.2,222.6c-18,0-72,0-72,0c-7.8,0-14.2-6.4-14.2-14.2V42.6c0-7.8,6.4-14.2,14.2-14.2H311
				c7.8,0,14.2,6.4,14.2,14.2v165.7c0,6.4-4.3,11.7-10,13.6c-5.9,2-4.3,5.9-4.3,5.9l17.5,46.4c0,0,1.4,4.3,6.3,3.7
				c6.5-0.9,11.4-7.1,11.4-13.9V19.1c0-7.8-6.4-14.2-14.2-14.2H14.2C6.4,4.9,0,11.3,0,19.1v102v49v93.9c0,7.8,6.4,14.2,14.2,14.2
				c0,0,53,0,71,0c6.7,0,8.7-5.2,8.7-5.2l17.2-45.6C111.2,227.4,113.1,222.6,107.2,222.6z"/>
		</g>
	</g>
</g>
</svg>
