<svg xmlns="http://www.w3.org/2000/svg" xmlns:xlink="http://www.w3.org/1999/xlink" viewBox="0 0 438.72 438.72" preserveAspectRatio="xMinYMin meet">
<style type="text/css">
    .st0{fill:#4c4c4c;}
</style>
<path class="st0" d="m 123.08058,27.828965 -5.5,27.3125 0,0.0625 -0.40625,1.96875 0,0.0312 c -1.99198,7.7389 -9.01406,13.46875 -17.406253,13.46875 -2.5671,0 -5.01161,-0.56431 -7.21875,-1.53125 l -26.40625,-17.5625 -0.15625,0.1875 -0.3125,-0.21875 -31.84375,31.65625 18.46875,27.531245 c 0.0108,0.0275 0.0206,0.0665 0.0312,0.0937 2.49375,6.41621 1.13577,13.94829 -4.0625,19.125 -2.11077,2.10202 -4.61941,3.56693 -7.28125,4.40625 l -0.0312,0.0312 -30.375,6.0625 -0.0312,0 0.0312,22.375 -0.0312,22.40635 0.0312,0 30.375,6.0625 0.0312,0.0312 c 2.66184,0.83932 5.17048,2.27298 7.28125,4.375 5.19827,5.17671 6.55625,12.74004 4.0625,19.15625 -0.0107,0.0275 -0.0205,0.0665 -0.0312,0.0937 l -18.46875,27.53135 31.84375,31.65625 0.3125,-0.21875 0.15625,0.1875 26.40625,-17.5625 c 2.20714,-0.96695 4.65165,-1.53125 7.21875,-1.53125 8.392193,0 15.414273,5.72984 17.406253,13.46875 l 0,0.0312 0.40625,1.96875 0,0.0625 5.5,27.28125 44.96875,0 5.5,-27.3125 0,-0.0312 0.375,-1.96875 c 0.002,-0.009 -0.002,-0.0224 0,-0.0312 1.99199,-7.73891 9.04532,-13.46875 17.4375,-13.46875 2.5671,0 5.01161,0.56431 7.21875,1.53125 l 26.375,17.5625 0.1875,-0.1875 0.3125,0.21875 31.81249,-31.65625 -18.43749,-27.53125 c -0.0108,-0.0275 -0.0206,-0.0663 -0.0312,-0.0937 -2.49375,-6.41621 -1.13577,-13.97954 4.0625,-19.15625 2.11077,-2.10201 4.6194,-3.53568 7.28125,-4.375 l 0.0312,-0.0312 30.34374,-6.0625 0.0312,0 -0.0312,-22.40625 0.0312,-22.375 -0.0312,0 -30.34374,-6.0625 -0.0312,-0.0312 c -2.66185,-0.83933 -5.17048,-2.30424 -7.28125,-4.40625 -5.19827,-5.17671 -6.55625,-12.7088 -4.0625,-19.125 0.0108,-0.0275 0.0204,-0.0663 0.0312,-0.0937 l 18.43749,-27.531245 -31.81249,-31.65625 -0.3125,0.21875 -0.1875,-0.1875 -26.375,17.5625 c -2.20714,0.96694 -4.65165,1.53125 -7.21875,1.53125 -8.39218,0 -15.44551,-5.72985 -17.4375,-13.46875 -0.002,-0.009 0.002,-0.0225 0,-0.0312 l -0.375,-1.969 0,-0.0312 -5.5,-27.34375 -44.96875,0 z m 21.0625,90.812495 c 0.46383,-0.0158 0.9391,0.002 1.40625,0 0.46713,0.002 0.94242,-0.0157 1.40625,0 4.84823,0.16528 9.52142,1.1076 13.875,2.6875 0.64396,0.23369 1.27614,0.48829 1.90625,0.75 0.61124,0.25389 1.21501,0.53295 1.8125,0.8125 0.57846,0.27065 1.15383,0.54967 1.71875,0.84375 0.0368,0.0193 0.057,0.0119 0.0937,0.0312 0.56392,0.29556 1.10658,0.61919 1.65625,0.9375 0.28346,0.16552 0.56325,0.32781 0.84375,0.5 1.02853,0.63131 2.04596,1.31061 3.03125,2.03125 1.97056,1.44127 3.86156,3.07748 5.625,4.875 8.41402,8.57674 12.64123,19.62721 12.75,30.71875 -0.10877,11.09152 -4.33598,22.17327 -12.75,30.75 -1.76344,1.79752 -3.65444,3.43373 -5.625,4.875 -0.98529,0.72065 -2.00272,1.39993 -3.03125,2.03125 -0.28051,0.17218 -0.56029,0.33448 -0.84375,0.5 -0.54967,0.31831 -1.09233,0.61069 -1.65625,0.90625 -0.0368,0.0194 -0.057,0.043 -0.0937,0.0625 -0.56492,0.29407 -1.14029,0.5731 -1.71875,0.84375 -0.5975,0.27955 -1.20126,0.55862 -1.8125,0.8125 -0.63012,0.26172 -1.26229,0.51631 -1.90625,0.75 -4.35358,1.5799 -9.02677,2.49098 -13.875,2.65625 -0.46383,0.0158 -0.93912,0.0297 -1.40625,0.0312 -0.46715,-0.002 -0.94242,-0.0154 -1.40625,-0.0312 -4.84823,-0.16527 -9.49019,-1.07635 -13.84375,-2.65625 -0.0195,-0.008 -0.0429,-0.024 -0.0625,-0.0312 -0.5377,-0.19597 -1.06569,-0.37819 -1.59375,-0.59375 -0.0855,-0.0352 -0.16458,-0.0891 -0.25,-0.125 -0.61125,-0.25388 -1.215,-0.53295 -1.8125,-0.8125 -0.39582,-0.18519 -0.79798,-0.36629 -1.1875,-0.5625 -0.17768,-0.0903 -0.35454,-0.18845 -0.53125,-0.28125 -0.0373,-0.0193 -0.0566,-0.043 -0.0937,-0.0625 -0.56391,-0.29555 -1.13783,-0.58795 -1.6875,-0.90625 -0.28392,-0.16442 -0.56376,-0.32965 -0.84375,-0.5 -1.02853,-0.63131 -2.0147,-1.31061 -3,-2.03125 -1.97056,-1.44127 -3.86157,-3.07748 -5.625,-4.875 -8.41403,-8.57674 -12.64123,-19.65848 -12.75,-30.75 0.10877,-11.09153 4.33597,-22.14202 12.75,-30.71875 1.76343,-1.79753 3.65444,-3.43373 5.625,-4.875 0.9853,-0.72064 1.97147,-1.39994 3,-2.03125 0.27999,-0.17036 0.55983,-0.33559 0.84375,-0.5 0.54967,-0.31831 1.12359,-0.64195 1.6875,-0.9375 0.0371,-0.0194 0.0565,-0.0119 0.0937,-0.0312 0.17671,-0.0928 0.35357,-0.19096 0.53125,-0.28125 0.38952,-0.19622 0.79168,-0.3773 1.1875,-0.5625 0.5975,-0.27955 1.20125,-0.55862 1.8125,-0.8125 0.0854,-0.0358 0.16442,-0.0898 0.25,-0.125 0.52807,-0.21556 1.05605,-0.42904 1.59375,-0.625 0.0195,-0.008 0.0429,0.007 0.0625,0 4.35357,-1.5799 8.99552,-2.52224 13.84375,-2.6875 z m 187.49999,76.125 -3.46875,17.1875 0,0.0312 -0.25,1.25 c -1.25421,4.87265 -5.68478,8.5 -10.96875,8.5 -1.61632,0 -3.14156,-0.35993 -4.53125,-0.96875 l -16.625,-11.0625 -0.125,0.125 -0.1875,-0.15625 -20.03125,19.9375 11.625,17.34375 c 0.007,0.0173 -0.006,0.0453 0,0.0625 1.57016,4.03986 0.74173,8.80308 -2.53125,12.0625 -1.32901,1.3235 -2.91776,2.22153 -4.59375,2.75 l -0.0312,0.0312 -19.125,3.8125 0,14.09375 0,14.09375 19.125,3.8125 0.0312,0.0312 c 1.67599,0.52846 3.26474,1.42651 4.59375,2.75 3.27298,3.25942 4.10141,8.02265 2.53125,12.0625 -0.007,0.0173 0.006,0.0453 0,0.0625 l -11.625,17.34375 20.03125,19.9375 0.1875,-0.15625 0.125,0.125 16.625,-11.0625 c 1.38969,-0.60882 2.91493,-0.96875 4.53125,-0.96875 5.28397,0 9.71454,3.62735 10.96875,8.5 l 0.25,1.25 0,0.0312 3.46875,17.1875 28.3125,0 3.46875,-17.21875 0.21875,-1.25 c 1.25422,-4.87266 5.71604,-8.5 11,-8.5 1.61633,0 3.14156,0.35993 4.53125,0.96875 l 16.625,11.0625 0.0937,-0.125 0.1875,0.15625 20.0625,-19.9375 -11.625,-17.34375 c -0.007,-0.0173 -0.0249,-0.0452 -0.0312,-0.0625 -1.57014,-4.03984 -0.7105,-8.80308 2.5625,-12.0625 1.329,-1.32349 2.91777,-2.22153 4.59375,-2.75 l 0,-0.0312 19.125,-3.8125 0.0312,0 -0.0312,-14.09375 0.0312,-14.09375 -0.0312,0 -19.125,-3.8125 0,-0.0312 c -1.67598,-0.52846 -3.26475,-1.42651 -4.59375,-2.75 -3.273,-3.25941 -4.13264,-8.02266 -2.5625,-12.0625 0.007,-0.0173 0.0249,-0.0453 0.0312,-0.0625 l 11.625,-17.34375 -20.0625,-19.9375 -0.1875,0.15625 -0.0937,-0.125 -16.625,11.0625 c -1.38969,0.60892 -2.91492,0.96885 -4.53125,0.96885 -5.28396,0 -9.74578,-3.62734 -11,-8.5 l -0.21875,-1.25 -3.46875,-17.21875 -28.3125,0 z m 14.15625,57.15625 c 0.29413,8.5e-4 0.58295,0.0217 0.875,0.0312 3.05259,0.10404 5.97762,0.6615 8.71875,1.65625 0.40547,0.14714 0.82202,0.30397 1.21875,0.46875 0.38486,0.15985 0.74881,0.35523 1.125,0.53125 0.36422,0.17041 0.73808,0.3461 1.09375,0.53125 0.0232,0.0121 0.0394,0.019 0.0625,0.0312 0.35505,0.18608 0.68516,0.39334 1.03125,0.59375 0.17848,0.10426 0.35464,0.20409 0.53125,0.3125 0.64759,0.3975 1.28588,0.79626 1.90625,1.25 1.24074,0.90748 2.42093,1.93072 3.53125,3.0625 5.29771,5.40018 7.99401,12.39142 8.0625,19.375 -0.0686,6.98357 -2.76479,13.94357 -8.0625,19.34375 -1.11032,1.13178 -2.29051,2.18628 -3.53125,3.09375 -0.62037,0.45374 -1.25866,0.8525 -1.90625,1.25 -0.17661,0.10846 -0.35277,0.20828 -0.53125,0.3125 -0.34609,0.20042 -0.6762,0.40767 -1.03125,0.59375 -0.0232,0.0122 -0.0393,0.019 -0.0625,0.0312 -0.35567,0.18516 -0.72953,0.36084 -1.09375,0.53125 -0.3762,0.17602 -0.74014,0.34015 -1.125,0.5 -0.39673,0.16479 -0.81328,0.35286 -1.21875,0.5 -2.74113,0.99475 -5.66616,1.5522 -8.71875,1.65625 -0.29205,0.0102 -0.58087,0.0301 -0.875,0.0312 -0.29412,-8.5e-4 -0.6142,-0.0217 -0.90625,-0.0312 -3.05259,-0.10404 -5.97762,-0.6615 -8.71875,-1.65625 -0.0124,-0.005 -0.0188,-0.0267 -0.0312,-0.0312 -0.33854,-0.12338 -0.66753,-0.23929 -1,-0.375 -0.054,-0.0222 -0.10242,-0.0711 -0.15625,-0.0937 -0.38486,-0.15985 -0.78005,-0.32399 -1.15625,-0.5 -0.24922,-0.11661 -0.47349,-0.22021 -0.71875,-0.34375 -0.11186,-0.0569 -0.2325,-0.12908 -0.34375,-0.1875 -0.0235,-0.0121 -0.0392,-0.019 -0.0625,-0.0312 -0.35506,-0.18609 -0.7164,-0.39333 -1.0625,-0.59375 -0.17875,-0.10348 -0.35496,-0.20524 -0.53125,-0.3125 -0.6476,-0.39749 -1.25463,-0.79626 -1.875,-1.25 -1.24072,-0.90746 -2.45219,-1.96197 -3.5625,-3.09375 -5.29772,-5.40017 -7.96276,-12.36019 -8.03125,-19.34375 0.0686,-6.98357 2.73353,-13.97483 8.03125,-19.375 1.11031,-1.13178 2.32178,-2.15504 3.5625,-3.0625 0.62037,-0.45373 1.2274,-0.85249 1.875,-1.25 0.17629,-0.10721 0.3525,-0.20897 0.53125,-0.3125 0.3461,-0.2004 0.70744,-0.40765 1.0625,-0.59375 0.0233,-0.0122 0.0391,-0.019 0.0625,-0.0312 0.11129,-0.0584 0.23187,-0.13063 0.34375,-0.1875 0.24526,-0.12353 0.46953,-0.22716 0.71875,-0.34375 0.3762,-0.17602 0.77139,-0.37139 1.15625,-0.53125 0.0538,-0.0225 0.10241,-0.0403 0.15625,-0.0625 0.33248,-0.13571 0.66146,-0.25161 1,-0.375 0.0124,-0.005 0.0188,-0.0267 0.0312,-0.0312 2.74113,-0.99476 5.66616,-1.55219 8.71875,-1.65625 0.29205,-0.0102 0.61213,-0.0301 0.90625,-0.0312 z m -134.06249,56.34375 -2.03125,10.09375 0,0.0312 -0.15625,0.7188 c -0.73777,2.86631 -3.32925,5 -6.4375,5 -0.95079,0 -1.87004,-0.20437 -2.6875,-0.5625 l -9.78125,-6.5 -0.0625,0.0625 -0.0937,-0.0937 -11.8125,11.75 6.84375,10.1875 c 0.004,0.01 -0.004,0.0211 0,0.0312 0.92361,2.3764 0.42533,5.17642 -1.5,7.09375 -0.78176,0.77852 -1.70165,1.31413 -2.6875,1.625 l -11.25,2.25 -0.0312,0 0.0312,8.3125 -0.0312,8.28125 0.0312,0 11.25,2.25 c 0.98585,0.31087 1.90573,0.84645 2.6875,1.625 1.92533,1.91731 2.42361,4.71734 1.5,7.09375 -0.004,0.01 0.004,0.0211 0,0.0312 l -6.84375,10.21875 11.8125,11.71875 0.0937,-0.0937 0.0625,0.0625 9.78125,-6.5 c 0.81746,-0.35816 1.73671,-0.5625 2.6875,-0.5625 3.10825,0 5.69973,2.13371 6.4375,5 l 0.15625,0.71875 0,0.0312 2.03125,10.125 16.65625,0 2.03125,-10.125 0,-0.0312 0.15625,-0.71875 c 0.73777,-2.8663 3.32923,-5 6.4375,-5 0.95077,0 1.87004,0.20437 2.6875,0.5625 l 9.78125,6.5 0.0625,-0.0625 0.0937,0.0937 11.81249,-11.71875 -6.84375,-10.21875 c -0.004,-0.01 0.004,-0.0211 0,-0.0312 -0.92362,-2.37641 -0.42531,-5.17642 1.5,-7.09375 0.78177,-0.77854 1.70163,-1.31414 2.6875,-1.625 l 11.25,-2.25 0,-8.28125 0,-8.3125 -11.25,-2.25 c -0.98587,-0.31085 -1.90573,-0.84646 -2.6875,-1.625 -1.92531,-1.91733 -2.42362,-4.71734 -1.5,-7.09375 0.004,-0.01 -0.004,-0.0211 0,-0.0312 l 6.84375,-10.1875 -11.81249,-11.75 -0.0937,0.0937 -0.0625,-0.0625 -9.78125,6.5 c -0.81746,0.35813 -1.73673,0.5625 -2.6875,0.5625 -3.10827,0 -5.69973,-2.1337 -6.4375,-5 l -0.15625,-0.71875 -2.03125,-10.125 -16.65625,0 z m 7.8125,33.625 c 0.17179,-0.006 0.32698,0 0.5,0 0.173,6.8e-4 0.35946,-0.005 0.53125,0 1.79565,0.0612 3.51256,0.38359 5.125,0.96875 0.23853,0.0866 0.48539,0.18429 0.71875,0.28125 0.22639,0.094 0.43495,0.20896 0.65625,0.3125 0.21424,0.10025 0.44701,0.20359 0.65625,0.3125 0.0136,0.007 0.0174,0.024 0.0312,0.0312 0.20887,0.10951 0.42141,0.22585 0.625,0.34375 0.105,0.0612 0.20861,0.1237 0.3125,0.1875 0.38095,0.23381 0.72884,0.45183 1.09375,0.71875 0.72984,0.5338 1.44062,1.14674 2.09375,1.8125 3.11634,3.17661 4.67847,7.29823 4.71875,11.40625 -0.0402,4.10804 -1.60241,8.19839 -4.71875,11.375 -0.65313,0.66576 -1.3639,1.27868 -2.09375,1.8125 -0.36491,0.2669 -0.7128,0.51618 -1.09375,0.75 -0.10388,0.0638 -0.20752,0.12619 -0.3125,0.1875 -0.20359,0.11788 -0.41613,0.23429 -0.625,0.34375 -0.0136,0.007 -0.0174,-0.007 -0.0312,0 -0.20924,0.10888 -0.44201,0.21226 -0.65625,0.3125 -0.2213,0.1035 -0.42986,0.21846 -0.65625,0.3125 -0.23336,0.0969 -0.48022,0.19469 -0.71875,0.28125 -1.61244,0.58516 -3.32935,0.90754 -5.125,0.96875 -0.17179,0.006 -0.35824,0.0312 -0.53125,0.0312 -0.17302,-6.7e-4 -0.32821,-0.0263 -0.5,-0.0312 -1.79565,-0.0612 -3.51256,-0.38359 -5.125,-0.96875 -0.008,-0.002 -0.024,0.003 -0.0312,0 -0.19915,-0.0726 -0.39817,-0.17016 -0.59375,-0.25 -0.0317,-0.013 -0.0622,-0.0179 -0.0937,-0.0312 -0.22639,-0.094 -0.43494,-0.20896 -0.65625,-0.3125 -0.1466,-0.0686 -0.29324,-0.11483 -0.4375,-0.1875 -0.0658,-0.0334 -0.1533,-0.0906 -0.21875,-0.125 -0.0138,-0.007 -0.0173,0.007 -0.0312,0 -0.20885,-0.1095 -0.42143,-0.22584 -0.625,-0.34375 -0.10513,-0.0609 -0.2088,-0.12445 -0.3125,-0.1875 -0.38094,-0.23383 -0.72884,-0.4831 -1.09375,-0.75 -0.72985,-0.53382 -1.44063,-1.14674 -2.09375,-1.8125 -3.11634,-3.17661 -4.67847,-7.26697 -4.71875,-11.375 0.0402,-4.10803 1.60241,-8.22964 4.71875,-11.40625 0.65312,-0.66576 1.3639,-1.24743 2.09375,-1.78125 0.36491,-0.26691 0.71281,-0.51617 1.09375,-0.75 0.10375,-0.0631 0.20733,-0.12661 0.3125,-0.1875 0.20357,-0.11787 0.41615,-0.23428 0.625,-0.34375 0.0138,-0.007 0.0173,-0.0242 0.0312,-0.0312 0.0654,-0.0344 0.15294,-0.0603 0.21875,-0.0937 0.14426,-0.0727 0.2909,-0.15016 0.4375,-0.21875 0.22131,-0.1035 0.42986,-0.21847 0.65625,-0.3125 0.0316,-0.0132 0.062,-0.0181 0.0937,-0.0312 0.19558,-0.0798 0.3946,-0.14618 0.59375,-0.21875 0.008,-0.002 0.024,-0.0292 0.0312,-0.0312 1.61244,-0.58516 3.32935,-0.90754 5.125,-0.96875 z"/>
</svg>
