<?xml version="1.0" encoding="utf-8"?>
<!-- Generator: Adobe Illustrator 21.0.0, SVG Export Plug-In . SVG Version: 6.00 Build 0)  -->
<svg version="1.1" id="Capa_1" xmlns="http://www.w3.org/2000/svg" xmlns:xlink="http://www.w3.org/1999/xlink" x="0px" y="0px"
	 viewBox="0 0 380.7 380.7" style="enable-background:new 0 0 380.7 380.7;" xml:space="preserve">
<style type="text/css">
	.st0{fill:#FFFFFF;}
</style>
<g>
	<g>
		<path class="st0" d="M250.8,250.6c-15.1,15.7-35.1,25.4-57.2,25.4c-22.6,0-43.1-10.2-58.4-26.6c-58.3,18.8-68.6,64.8-68.6,82.2
			c0,22.1,0,49.2,0,49.2h247.5c0,0,0-13.5,0-36.6C314.1,325.9,307.7,272.4,250.8,250.6z"/>
		<path class="st0" d="M128.5,111.9v58.6c0,3.8,2.5,6.9,5.9,8.1c0,0.2,0,0.4,0,0.6c0,30.6,16.1,56.6,38.7,66.6
			c0.2,0.1,0.4,0.2,0.5,0.3c1.8,0.7,3.6,1.4,5.5,2c0.4,0.1,0.8,0.2,1.1,0.4c1.7,0.5,3.5,0.8,5.2,1.1c0.5,0.1,1,0.2,1.5,0.3
			c2.2,0.3,4.4,0.5,6.7,0.5c2.2,0,4.4-0.2,6.6-0.5c0.5-0.1,0.9-0.2,1.3-0.2c1.8-0.3,3.5-0.7,5.3-1.1c0.3-0.1,0.6-0.2,1-0.3
			c1.9-0.6,3.8-1.2,5.6-2c0.1,0,0.2-0.1,0.3-0.2c22.8-9.9,39.1-36,39.1-66.7c0-0.1,0-0.2,0-0.2c4.2-0.6,7.5-4,7.5-8.4v-63
			c10.4-5.2,19.2-12.4,24.5-22.3c10.8-20.3,11.6-39.9,2.4-55.3c-9.2-15.3-27.2-24.1-49.4-24.1c-15.9,0-30.1,7-41.7,15.8
			C185.5,10,165.5-0.5,144,0c-13.8,0.4-33.5,5.5-48.4,27.9c-7.7,11.5-10.1,23.7-7,36.2C94.3,87.8,118.4,105.4,128.5,111.9z
			 M110,37.5c8.7-13,20.3-19.8,34.5-20.2c15.4-0.4,31,7.3,38.5,15.6c-11.8,11.9-18.9,23.5-19.5,24.5c-2.5,4.1-1.2,9.4,2.9,11.9
			c4.1,2.5,9.4,1.2,11.9-2.9C178.5,65.9,205,23,237.6,23c16,0,28.6,5.7,34.6,15.7c6,10,5,23.6-2.8,38.3
			c-14.3,27-75.5,28.1-97.9,26.2c-4.7-0.4-8.9,3.2-9.3,7.9c-0.4,4.8,3.1,8.9,7.9,9.3c1,0.1,7.5,0.6,17,0.6c14.6,0,36.2-1.2,55.8-6.9
			v47.7h-97.1v-54.8c0-3.2-1.7-6-4.5-7.6c-0.3-0.2-30.6-17.3-36-39.4C103.5,52.3,105,45,110,37.5z"/>
	</g>
</g>
</svg>
