<?xml version="1.0" encoding="utf-8"?>
<!-- Generator: Adobe Illustrator 21.0.0, SVG Export Plug-In . SVG Version: 6.00 Build 0)  -->
<svg version="1.1" id="Capa_1" xmlns="http://www.w3.org/2000/svg" xmlns:xlink="http://www.w3.org/1999/xlink" x="0px" y="0px"
	 viewBox="0 0 377.8 377.8" style="enable-background:new 0 0 377.8 377.8;" xml:space="preserve">
<style type="text/css">
	.st0{fill:#FFFFFF;}
</style>
<g>
	<g id="Layer_5_82_">
		<g>
			<g>
				<g>
					<path class="st0" d="M185.9,121.8c34,0,61.6-27.3,61.6-60.9c0-33.6-27.6-60.9-61.6-60.9c-34,0-61.6,27.3-61.6,60.9
						C124.3,94.6,151.9,121.8,185.9,121.8z"/>
				</g>
				<path class="st0" d="M291.2,238.4l-28.3-75.7c-1-2.8-7.9-20.8-26.3-20.8c-2.9,0-3.4,0-3.4,0c-1.5,0-24.1,0-47.3-0.1
					c-23.2,0-45.9,0.1-47.3,0.1c0,0-0.5,0-3.4,0c-18.3,0-25.2,18-26.3,20.8l-28.3,75.7c-1,2.8-0.5,7.8,3.8,11.6
					c6.9,6.1,15.9,13.1,24,13.1c5.5,0,7.2-4.8,7.2-4.8l14.6-38.2c0,0,2.5-6.7,2.5,0.6c0,10,0.1,26.7,0.2,39.5
					c0,4.3,0.9,9.7,5.2,12.3c16.2,10,30.2,9.4,47.7,9.4c17.5,0,31.5,0.6,47.7-9.4c4.4-2.7,5.2-8,5.2-12.3
					c0.1-12.9,0.2-29.5,0.2-39.5c0-7.3,2.5-0.6,2.5-0.6l14.6,38.2c0,0,1.7,4.8,7.2,4.8c8.1,0,17.1-7,24-13.1
					C291.7,246.3,292.2,241.2,291.2,238.4z M210.1,240.1l-20.7,19c-1,0.9-2.2,1.3-3.5,1.3c-1.3,0-2.5-0.4-3.5-1.3l-20.7-19
					c-1.9-1.8-3.1-5.3-2.5-7.9l10.8-51.4c0.2-0.8,0.6-3.1,0.6-3.6c-0.2-2.7-0.8-10.8-0.8-10.8c-0.2-2.6,1.8-4.8,4.4-4.8h11.8h11.8
					c2.6,0,4.6,2.1,4.4,4.8c0,0-0.6,8.1-0.8,10.8c0,0.5,0.4,2.9,0.6,3.6l10.8,51.4C213.1,234.8,212,238.4,210.1,240.1z"/>
			</g>
			<path class="st0" d="M348.9,271.6c-0.8,0-1.6,0.1-2.4,0.2c-0.6,0.1-1.8,0.4-3-0.6l-20.2-20.2c-1.8-2-6-7.6-12.5-5
				c-3.7,1.6-5.3,6.5-5.8,7.9c-11.1,27.7-67.1,49.3-121,49.3c-52,0-103.8-20-115.6-47.2c-0.6-1.4-2-3.6-3.2-4.7
				c-2.6-2.5-8.3-2.7-11.8,0.8l-18.8,18.8c-1.9,1.4-3,1.1-3.8,1c-0.6-0.1-1.3-0.1-2-0.1c-8.9,0-16.1,7.2-16.1,16.1
				s7.2,16.1,16.1,16.1c8.4,0,15.3-6.4,16.1-14.6c0-0.5,0.1-1,0.1-1.6c0-0.7-0.3-2,1.3-3.4l9.4-9.4c2.8-2.7,4.2-0.5,5.1,0.5
				c23.1,26.3,65.4,43.4,113.5,45.4c1.4,0.1,4.1,0.2,4.1,3.1c0,6.1,0,17.3,0,23.1c0,1.2-1.1,2-1.6,2.4c-3.5,3-5.6,7.4-5.6,12.3
				c0,8.9,7.2,16.1,16.1,16.1s16.1-7.2,16.1-16.1c0-4.9-2.2-9.3-5.6-12.2c-0.5-0.4-1.6-1.2-1.6-2.4c0-5.8,0-17.2,0-23.4
				c0-3,2.5-3.1,3.8-3.2c48.8-3.4,92-21.9,113.8-48.4c0.8-0.9,2.3-2.5,4.8-0.3l13,13c1.4,1,1,2.4,1,3.1c0,0.3,0,0.6,0,0.9
				c0.5,8.5,7.5,15.2,16.1,15.2c8.9,0,16.1-7.2,16.1-16.1S357.8,271.6,348.9,271.6z"/>
		</g>
	</g>
</g>
</svg>
