<?xml version="1.0" encoding="utf-8"?>
<!-- Generator: Adobe Illustrator 21.0.0, SVG Export Plug-In . SVG Version: 6.00 Build 0)  -->
<svg version="1.1" id="Capa_1" xmlns="http://www.w3.org/2000/svg" xmlns:xlink="http://www.w3.org/1999/xlink" x="0px" y="0px"
	 viewBox="0 0 493.6 493.6" style="enable-background:new 0 0 493.6 493.6;" xml:space="preserve">
<style type="text/css">
	.st0{fill:#FFFFFF;}
</style>
<g>
	<path class="st0" d="M227.6,262.1h-24.8v20.1c0,24.9-20.1,45-45,45c-24.8,0-45-20.1-45-45l0.1-20.4l-26.4,0l-18.6,91.9
		c-0.7,3.6,0.2,7.4,2.5,10.3c2.3,2.9,5.9,4.5,9.6,4.5h17.9v100.1c0,13.8,11.2,25,25,25c13.8,0,25-11.2,25-25V368.5h19.8v100.1
		c0,13.8,11.2,25,25,25c13.8,0,25-11.2,25-25V368.5h17.9c3.7,0,7.2-1.7,9.6-4.5c2.3-2.9,3.3-6.6,2.5-10.3l-18.6-91.9
		C228.7,261.9,228.2,262.1,227.6,262.1z"/>
	<path class="st0" d="M157.8,108.9c30.1,0,54.5-24.4,54.5-54.5c0-30.1-24.4-54.5-54.5-54.5c-30.1,0-54.5,24.4-54.5,54.5
		C103.4,84.5,127.8,108.9,157.8,108.9z"/>
	<path class="st0" d="M72.9,286.3l12.4-24.8c-3.2-1.1-5.5-4.1-5.5-7.7c0-4.6,3.7-8.2,8.2-8.2h5.2h31.6v-63.1v-10.3L113,129.5
		c-13,4.7-23.9,14-30.3,26.8l-54,107.8c-6.1,12.2-1.2,27.1,11,33.2c3.5,1.8,7.3,2.6,11.1,2.6C59.8,300,68.6,295,72.9,286.3z"/>
	<path class="st0" d="M324.9,198.9h-44.3c-6,0-11.8-2.8-15.5-7.6l-34.1-44c-7.2-9.4-17.2-15.7-28.2-18.8l-12.2,43.7v4.4v69h35.2
		l-6.6-32.8l6.8,8.8c13,16.7,33.4,26.7,54.5,26.7h44.3c13.7,0,24.7-11.1,24.7-24.7C349.7,209.9,338.6,198.9,324.9,198.9z"/>
	<polygon class="st0" points="129.2,126.2 142,171.9 173.7,171.9 186.5,126.2 	"/>
	<path class="st0" d="M282.7,158.4H452c1.7,0,3.3-0.7,4.5-2c1.1-1.3,1.6-3,1.4-4.7c-5.3-36.7-36.7-65.8-76.7-71.3
		c1.2-2.2,2.1-4.7,2.1-7.4c0-8.7-7.1-15.8-15.8-15.8c-8.7,0-15.8,7.1-15.8,15.8c0,2.7,0.9,5.1,2.1,7.4c-40,5.5-71.4,34.6-76.7,71.3
		c-0.2,1.7,0.3,3.4,1.4,4.7C279.3,157.6,281,158.4,282.7,158.4z"/>
	<path class="st0" d="M455.2,166.4H279.5c-6.8,0-12.4,5.5-12.4,12.4c0,6.8,5.5,12.4,12.4,12.4h175.7c6.8,0,12.4-5.5,12.4-12.4
		C467.5,171.9,462,166.4,455.2,166.4z"/>
</g>
</svg>
