<?xml version="1.0" encoding="utf-8"?>
<!DOCTYPE svg PUBLIC "-//W3C//DTD SVG 1.1//EN" "http://www.w3.org/Graphics/SVG/1.1/DTD/svg11.dtd">
<svg version="1.1" xmlns="http://www.w3.org/2000/svg" xmlns:xlink="http://www.w3.org/1999/xlink" x="0px" y="0px" viewBox="0 0 1000 1000" enable-background="new 0 0 1000 1000" xml:space="preserve">
<style type="text/css">
    .st0{fill:#fff;}
</style>
    <g>
        <g>
            <path class="st0" d="M806.3,10H193.8c-19.3,0-35,15.7-35,35v297.5h682.5V45C841.3,25.7,825.6,10,806.3,10z M771.3,255H228.8V80h542.5V255z" />
            <path class="st0" d="M158.8,955c0,19.3,15.7,35,35,35h612.5c19.3,0,35-15.7,35-35V360H158.8V955z M683.8,447.5c0-19.3,15.7-35,35-35h52.5c19.3,0,35,15.7,35,35V465c0,19.3-15.7,35-35,35h-52.5c-19.3,0-35-15.7-35-35V447.5z M683.8,587.5c0-19.3,15.7-35,35-35h52.5c19.3,0,35,15.7,35,35V605c0,19.3-15.7,35-35,35h-52.5c-19.3,0-35-15.7-35-35V587.5z M683.8,727.5c0-19.3,15.7-35,35-35h52.5c19.3,0,35,15.7,35,35V885c0,19.3-15.7,35-35,35h-52.5c-19.3,0-35-15.7-35-35V727.5z M526.3,447.5c0-19.3,15.7-35,35-35h52.5c19.3,0,35,15.7,35,35V465c0,19.3-15.7,35-35,35h-52.5c-19.3,0-35-15.7-35-35V447.5z M526.3,587.5c0-19.3,15.7-35,35-35h52.5c19.3,0,35,15.7,35,35V605c0,19.3-15.7,35-35,35h-52.5c-19.3,0-35-15.7-35-35V587.5z M526.3,727.5c0-19.3,15.7-35,35-35h52.5c19.3,0,35,15.7,35,35V745c0,19.3-15.7,35-35,35h-52.5c-19.3,0-35-15.7-35-35V727.5z M526.3,867.5c0-19.3,15.7-35,35-35h52.5c19.3,0,35,15.7,35,35V885c0,19.3-15.7,35-35,35h-52.5c-19.3,0-35-15.7-35-35V867.5z M368.8,447.5c0-19.3,15.7-35,35-35h52.5c19.3,0,35,15.7,35,35V465c0,19.3-15.7,35-35,35h-52.5c-19.3,0-35-15.7-35-35V447.5z M368.8,587.5c0-19.3,15.7-35,35-35h52.5c19.3,0,35,15.7,35,35V605c0,19.3-15.7,35-35,35h-52.5c-19.3,0-35-15.7-35-35V587.5z M368.8,727.5c0-19.3,15.7-35,35-35h52.5c19.3,0,35,15.7,35,35V745c0,19.3-15.7,35-35,35h-52.5c-19.3,0-35-15.7-35-35V727.5z M368.8,867.5c0-19.3,15.7-35,35-35h52.5c19.3,0,35,15.7,35,35V885c0,19.3-15.7,35-35,35h-52.5c-19.3,0-35-15.7-35-35V867.5z M211.3,447.5c0-19.3,15.7-35,35-35h52.5c19.3,0,35,15.7,35,35V465c0,19.3-15.7,35-35,35h-52.5c-19.3,0-35-15.7-35-35V447.5z M211.3,587.5c0-19.3,15.7-35,35-35h52.5c19.3,0,35,15.7,35,35V605c0,19.3-15.7,35-35,35h-52.5c-19.3,0-35-15.7-35-35V587.5z M211.3,727.5c0-19.3,15.7-35,35-35h52.5c19.3,0,35,15.7,35,35V745c0,19.3-15.7,35-35,35h-52.5c-19.3,0-35-15.7-35-35V727.5z M211.3,867.5c0-19.3,15.7-35,35-35h52.5c19.3,0,35,15.7,35,35V885c0,19.3-15.7,35-35,35h-52.5c-19.3,0-35-15.7-35-35V867.5z" />
            <polygon class="st0" points="736.3,482.5 753.8,482.5 753.8,465 771.3,465 771.3,447.5 753.8,447.5 753.8,430 736.3,430 736.3,447.5 718.8,447.5 718.8,465 736.3,465 " />
            <rect class="st0" x="718.8" y="780" width="52.5" height="17.5" />
            <rect class="st0" x="718.8" y="587.5" width="52.5" height="17.5" />
            <rect class="st0" x="718.8" y="815" width="52.5" height="17.5" />
        </g>
    </g>
</svg>
