<?xml version="1.0" encoding="utf-8"?>
<!-- Generator: Adobe Illustrator 21.0.0, SVG Export Plug-In . SVG Version: 6.00 Build 0)  -->
<svg version="1.1" id="Capa_1" xmlns="http://www.w3.org/2000/svg" xmlns:xlink="http://www.w3.org/1999/xlink" x="0px" y="0px"
	 viewBox="0 0 268.5 268.5" style="enable-background:new 0 0 268.5 268.5;" xml:space="preserve">
<style type="text/css">
	.st0{fill:#FFFFFF;}
</style>
<g id="Download">
	<path class="st0" d="M232.9,223.7H35.5c-12.2,0-22.1,10-22.1,22.4c0,12.4,9.9,22.4,22.1,22.4h197.4c12.2,0,22.1-10,22.1-22.4
		C255.1,233.7,245.2,223.7,232.9,223.7z M117.9,199.1c4,4,9.2,6.1,14.5,6.5c0.6,0.1,1.2,0.2,1.9,0.2c0.6,0,1.2-0.1,1.8-0.2
		c5.3-0.4,10.5-2.5,14.5-6.5l70.8-71c8.9-8.9,8.9-23.3,0-32.1c-8.9-8.9-23.2-8.9-32.1,0l-32.7,32.8V22.4c0-12.4-10-22.4-22.4-22.4
		c-12.4,0-22.4,10-22.4,22.4v106.4L79.2,96c-8.9-8.9-23.2-8.9-32.1,0c-8.9,8.9-8.9,23.3,0,32.1L117.9,199.1z"/>
</g>
</svg>
