<?xml version="1.0" encoding="utf-8"?>
<!-- Generator: Adobe Illustrator 21.0.0, SVG Export Plug-In . SVG Version: 6.00 Build 0)  -->
<svg version="1.1" id="Layer_1" xmlns="http://www.w3.org/2000/svg" xmlns:xlink="http://www.w3.org/1999/xlink" x="0px" y="0px"
	 viewBox="0 0 200 200" style="enable-background:new 0 0 200 200;" xml:space="preserve">
<style type="text/css">
	.st0{fill:#FFFFFF;}
</style>
<polygon class="st0" points="136.4,130.4 88.8,99.1 88.8,43.4 102.4,43.4 102.4,91.7 143.8,119 "/>
<rect x="147.6" y="120.3" class="st0" width="22.8" height="45.5"/>
<polygon class="st0" points="158.9,200 186.9,165.9 130.9,165.9 "/>
<path class="st0" d="M100,0C49.7,0,8.9,40.8,8.9,91.1s40.8,91.1,91.1,91.1c7.8,0,15.4-1.1,22.6-2.9v-17.7
	c-7.1,2.3-14.7,3.6-22.6,3.6c-40.8,0-74-33.2-74-74s33.2-74,74-74s74,33.2,74,74c0,6.7-1,13.1-2.6,19.3h17.5
	c1.3-6.2,2.1-12.7,2.1-19.3C191.1,40.8,150.2,0,100,0z"/>
</svg>
