<?xml version="1.0" encoding="utf-8"?>
<!-- Generator: Adobe Illustrator 21.0.0, SVG Export Plug-In . SVG Version: 6.00 Build 0)  -->
<svg version="1.1" id="Capa_1" xmlns="http://www.w3.org/2000/svg" xmlns:xlink="http://www.w3.org/1999/xlink" x="0px" y="0px"
	 viewBox="0 0 16 16" style="enable-background:new 0 0 16 16;" xml:space="preserve">
<style type="text/css">
	.st0{fill:#FFFFFF;}
</style>
<g>
	<path class="st0" d="M13,1h-2c0-0.6-0.4-1-1-1H7C6.4,0,6,0.4,6,1H4C3.4,1,3,1.4,3,2h11C14,1.4,13.6,1,13,1z"/>
	<path class="st0" d="M3,15c0,0.6,0.4,1,1,1h9c0.6,0,1-0.4,1-1V3H3V15z M11,5.5C11,5.2,11.2,5,11.5,5S12,5.2,12,5.5v8
		c0,0.3-0.2,0.5-0.5,0.5S11,13.8,11,13.5V5.5z M8,5.5C8,5.2,8.2,5,8.5,5C8.8,5,9,5.2,9,5.5v8C9,13.8,8.8,14,8.5,14
		C8.2,14,8,13.8,8,13.5V5.5z M5,5.5C5,5.2,5.2,5,5.5,5S6,5.2,6,5.5v8C6,13.8,5.8,14,5.5,14S5,13.8,5,13.5V5.5z"/>
</g>
</svg>
