<?xml version="1.0" encoding="utf-8"?>
<!-- Generator: Adobe Illustrator 21.0.0, SVG Export Plug-In . SVG Version: 6.00 Build 0)  -->
<svg version="1.1" id="Layer_1" xmlns="http://www.w3.org/2000/svg" xmlns:xlink="http://www.w3.org/1999/xlink" x="0px" y="0px"
	 viewBox="0 0 394.2 394.2" style="enable-background:new 0 0 394.2 394.2;" xml:space="preserve">
<style type="text/css">
	.st0{fill:#ABABAB;}
</style>
<title>calendar</title>
<path class="st0" d="M75.8,91C84.2,91,91,84.2,91,75.9c0,0,0,0,0-0.1V15.2C91,6.8,84.2,0,75.8,0S60.7,6.8,60.7,15.2v60.7
	C60.7,84.2,67.4,91,75.8,91L75.8,91z"/>
<rect x="242.6" y="182" class="st0" width="60.7" height="60.7"/>
<path class="st0" d="M318.4,91c8.4,0,15.2-6.8,15.2-15.2l0,0V15.2c-0.2-8.4-7.2-15-15.6-14.8c-8.1,0.2-14.6,6.7-14.8,14.8v60.7
	C303.2,84.2,310,91,318.4,91L318.4,91z"/>
<rect x="60.7" y="182" class="st0" width="60.7" height="60.7"/>
<rect x="151.6" y="182" class="st0" width="60.6" height="60.7"/>
<rect x="60.7" y="272.9" class="st0" width="60.7" height="60.6"/>
<rect x="151.6" y="272.9" class="st0" width="60.6" height="60.6"/>
<rect x="242.6" y="272.9" class="st0" width="60.6" height="60.6"/>
<path class="st0" d="M361.4,60.7h-12.6v15.2c0,16.7-13.6,30.3-30.3,30.3c-16.7,0-30.3-13.6-30.3-30.3V60.7h-182v15.2
	c0,16.7-13.6,30.3-30.3,30.3S45.6,92.6,45.6,75.9V60.7H32.9C14.6,60.8-0.1,75.7,0,94l0,0v266.9c0,18.4,14.7,33.4,32.9,33.4h328.5
	c18.1,0,32.9-15,32.9-33.4V94C394.2,75.6,379.5,60.7,361.4,60.7z M363.9,360.9c0.1,1.5-1,2.8-2.5,3H32.9c-1.5-0.2-2.6-1.5-2.5-3
	V151.6H364v209.3H363.9z"/>
</svg>
