<?xml version="1.0" ?><svg id="icons" viewBox="0 0 49 38" xmlns="http://www.w3.org/2000/svg"><title/><g id="Icon"><path d="M48.77,20.07c0-.06.06-0.11,0.09-0.17s0-.12.06-0.18,0-.12.05-0.19,0-.12,0-0.19,0-.13,0-0.2S49,19,49,19s0-.14,0-0.2,0-.11,0-0.17a2,2,0,0,0-.06-0.2c0-.05-0.05-0.11-0.08-0.16a2,2,0,0,0-.1-0.19l-0.11-.14c0-.05-0.07-0.1-0.12-0.15L32.13,0.61a2,2,0,0,0-2.79,0,2,2,0,0,0,0,2.83L42.25,17H2a2,2,0,0,0,0,4H42.48L29.34,34.6a2,2,0,0,0,0,2.83,1.95,1.95,0,0,0,2.79,0L48.44,20.54s0.08-.1.12-0.15l0.12-.15A2,2,0,0,0,48.77,20.07Z" data-name="Icon" id="Icon-2"  fill="#4c4c4c"/></g></svg>