<?xml version="1.0" encoding="utf-8"?>
<svg version="1.1" xmlns="http://www.w3.org/2000/svg" xmlns:xlink="http://www.w3.org/1999/xlink" x="0px" y="0px"
	 viewBox="0 0 185 187" style="enable-background:new 0 0 185 187;" xml:space="preserve">
<style type="text/css">
	.st0{enable-background:new    ;}
	.st1{fill:#EEEEEE;}
	.st2{fill:#84BEF0;}
</style>
<g class="st0">
	<g id="figures">
		<g>
			<path class="st1" d="M68.5,18c2.481,0,4.5,2.019,4.5,4.5S70.981,27,68.5,27S64,24.981,64,22.5S66.019,18,68.5,18 M24.5,133
				c2.481,0,4.5,2.019,4.5,4.5s-2.019,4.5-4.5,4.5s-4.5-2.019-4.5-4.5S22.019,133,24.5,133 M176.5,137c2.481,0,4.5,2.019,4.5,4.5
				c0,2.481-2.019,4.5-4.5,4.5s-4.5-2.019-4.5-4.5C172,139.019,174.019,137,176.5,137 M176.655,0.013l-1.958,6.366l-6.374,1.956
				l6.374,1.955l1.958,6.366l1.958-6.366l6.374-1.955l-6.374-1.956L176.655,0.013L176.655,0.013z M68.5,15
				c-4.142,0-7.5,3.358-7.5,7.5c0,4.142,3.358,7.5,7.5,7.5s7.5-3.358,7.5-7.5C76,18.358,72.642,15,68.5,15L68.5,15z M8.345,25.787
				l-1.958,6.366l-6.374,1.955l6.374,1.956l1.958,6.366l1.958-6.366l6.374-1.956l-6.374-1.955L8.345,25.787L8.345,25.787z M24.5,130
				c-4.142,0-7.5,3.358-7.5,7.5c0,4.142,3.358,7.5,7.5,7.5s7.5-3.358,7.5-7.5C32,133.358,28.642,130,24.5,130L24.5,130z M176.5,134
				c-4.142,0-7.5,3.358-7.5,7.5c0,4.142,3.358,7.5,7.5,7.5s7.5-3.358,7.5-7.5C184,137.358,180.642,134,176.5,134L176.5,134z
				 M71.181,170.344l-1.958,6.366l-6.374,1.956l6.374,1.956l1.958,6.366l1.958-6.366l6.374-1.956l-6.374-1.956L71.181,170.344
				L71.181,170.344z"/>
		</g>
	</g>
</g>
<g class="st0">
	<g id="lock">
		<g>
			<path class="st2" d="M139.046,54.516C128.625,43.137,113.646,36,97,36c-31.48,0-57,25.52-57,57h10.688
				c0-25.578,20.735-46.313,46.313-46.313c13.696,0,26,5.947,34.478,15.397L114.813,78.75H154V39.563L139.046,54.516z M98.806,68
				h-2.612c-6.399,0-11.754,5.116-11.754,11.378v4.404C81.828,84.571,80,86.989,80,89.815v13.949c0,3.487,2.899,6.236,6.478,6.236
				h22.045c3.578,0,6.478-2.749,6.478-6.236V89.815c0-2.825-1.828-5.244-4.702-6.033v-4.404C110.298,73.142,105.205,68,98.806,68z
				 M87.575,79.378c0-4.556,3.944-8.324,8.619-8.324h2.612c4.675,0,8.358,3.767,8.358,8.324v4.149h-19.59V79.378z M111.866,89.84
				v13.847c0,1.807-1.489,3.258-3.343,3.258H86.478c-1.854,0-3.343-1.451-3.343-3.258V89.84c0-1.807,1.489-3.258,3.343-3.258h22.045
				C110.377,86.582,111.866,88.033,111.866,89.84z M97,139.313c-13.696,0-26-5.947-34.478-15.397l16.665-16.665H40v39.188
				l14.954-14.954C65.375,142.863,80.354,150,97,150c31.48,0,57-25.52,57-57h-10.688C143.313,118.578,122.578,139.313,97,139.313z
				 M96.978,95.236c-0.862,0-1.567,0.687-1.567,1.527v4.836c0,0.84,0.705,1.527,1.567,1.527c0.862,0,1.567-0.687,1.567-1.527v-4.836
				C98.545,95.924,97.84,95.236,96.978,95.236z"/>
		</g>
	</g>
</g>
</svg>
